<svg xmlns="http://www.w3.org/2000/svg" xmlns:xlink="http://www.w3.org/1999/xlink" viewBox="0 0 678.29 639.36"><defs><style>.cls-1{fill:none;}.cls-2{clip-path:url(#clip-path);}.cls-14,.cls-15,.cls-16,.cls-17,.cls-18,.cls-20,.cls-21,.cls-22,.cls-23,.cls-24,.cls-25,.cls-26,.cls-27,.cls-28,.cls-29,.cls-3,.cls-30,.cls-31,.cls-32,.cls-33,.cls-35,.cls-36,.cls-37,.cls-38,.cls-39,.cls-4,.cls-40,.cls-41,.cls-42,.cls-43,.cls-44,.cls-45,.cls-46,.cls-47,.cls-48,.cls-50,.cls-51,.cls-6,.cls-9{fill-rule:evenodd;}.cls-3{fill:url(#radial-gradient);}.cls-4{fill:url(#radial-gradient-2);}.cls-22,.cls-23,.cls-28,.cls-29,.cls-5{opacity:0.5;}.cls-6{fill:#c4b0b8;}.cls-7{opacity:0.63;}.cls-8{opacity:0.47;}.cls-9{fill:#c4b0ff;}.cls-10{fill:url(#radial-gradient-3);}.cls-11,.cls-48{fill:#fff;}.cls-12{clip-path:url(#clip-path-2);}.cls-13{fill:url(#linear-gradient);}.cls-14{fill:url(#linear-gradient-2);}.cls-15{fill:url(#linear-gradient-3);}.cls-16{fill:url(#radial-gradient-4);}.cls-17,.cls-28,.cls-34{fill:#31165f;}.cls-18{fill:url(#radial-gradient-5);}.cls-19,.cls-20{fill:#53345f;}.cls-21{fill:url(#linear-gradient-4);}.cls-22,.cls-23,.cls-28,.cls-29{isolation:isolate;}.cls-22{fill:url(#radial-gradient-6);}.cls-23{fill:url(#radial-gradient-7);}.cls-24{fill:url(#radial-gradient-8);}.cls-25{fill:#a6345f;}.cls-26{fill:url(#linear-gradient-5);}.cls-27{fill:url(#radial-gradient-9);}.cls-29{fill:url(#radial-gradient-10);}.cls-30{fill:url(#linear-gradient-6);}.cls-31{fill:url(#radial-gradient-11);}.cls-32{fill:url(#linear-gradient-7);}.cls-33{fill:url(#radial-gradient-12);}.cls-35{fill:url(#radial-gradient-13);}.cls-36{fill:url(#radial-gradient-14);}.cls-37{fill:url(#radial-gradient-15);}.cls-38{fill:url(#radial-gradient-16);}.cls-39{fill:url(#radial-gradient-17);}.cls-40{fill:url(#radial-gradient-18);}.cls-41{fill:url(#radial-gradient-19);}.cls-42{fill:url(#radial-gradient-20);}.cls-43{fill:#6f2561;}.cls-44{fill:url(#linear-gradient-8);}.cls-45{fill:#ff4c61;}.cls-46{fill:url(#linear-gradient-9);}.cls-47{fill:url(#linear-gradient-10);}.cls-49{opacity:0.36;}.cls-50{fill:url(#linear-gradient-11);}.cls-51{fill:url(#linear-gradient-12);}.cls-52{fill:url(#linear-gradient-13);}.cls-53{fill:url(#radial-gradient-21);}.cls-54{fill:url(#radial-gradient-22);}.cls-55{fill:url(#radial-gradient-23);}.cls-56{fill:url(#radial-gradient-24);}.cls-57{fill:url(#radial-gradient-25);}.cls-58{fill:url(#radial-gradient-26);}</style><clipPath id="clip-path" transform="translate(-0.04)"><rect class="cls-1" y="37.05" width="552" height="562"/></clipPath><radialGradient id="radial-gradient" cx="-609.32" cy="874.62" r="1" gradientTransform="matrix(276.01, 0, 0, -275.97, 168451.85, 241683.57)" gradientUnits="userSpaceOnUse"><stop offset="0.81" stop-color="#008bc4"/><stop offset="0.98" stop-opacity="0"/></radialGradient><radialGradient id="radial-gradient-2" cx="-609.8" cy="874.81" r="1" gradientTransform="matrix(352.05, 0, 0, -352, 214898.19, 308164.58)" gradientUnits="userSpaceOnUse"><stop offset="0" stop-color="#7c83ff"/><stop offset="0.84" stop-color="#482088"/><stop offset="0.95" stop-color="#403b77"/><stop offset="1" stop-color="#4d79d1"/></radialGradient><radialGradient id="radial-gradient-3" cx="-608.49" cy="866.71" r="1" gradientTransform="matrix(106.49, -68.17, -32.72, -51.11, 93580.71, 3335.68)" gradientUnits="userSpaceOnUse"><stop offset="0" stop-color="#2c6aff"/><stop offset="1" stop-opacity="0"/></radialGradient><clipPath id="clip-path-2" transform="translate(-0.04)"><rect class="cls-1" x="581.46" y="37.07" width="52.37" height="153.93" transform="translate(219.18 595.01) rotate(-61.7)"/></clipPath><linearGradient id="linear-gradient" x1="675.27" y1="519.95" x2="635.85" y2="541.18" gradientTransform="matrix(1, 0, 0, -1, 0, 670.99)" gradientUnits="userSpaceOnUse"><stop offset="0" stop-opacity="0"/><stop offset="1" stop-color="#106d90"/></linearGradient><linearGradient id="linear-gradient-2" x1="651.12" y1="556.06" x2="624.73" y2="570.28" gradientTransform="matrix(1, 0, 0, -1, 0, 670.99)" gradientUnits="userSpaceOnUse"><stop offset="0" stop-color="#a43440"/><stop offset="1" stop-color="#c73634"/></linearGradient><linearGradient id="linear-gradient-3" x1="631.62" y1="519.85" x2="605.22" y2="534.06" xlink:href="#linear-gradient-2"/><radialGradient id="radial-gradient-4" cx="-608.93" cy="864.85" r="1" gradientTransform="matrix(16.15, -29.99, -54.13, -29.14, 57215.36, 7029.29)" gradientUnits="userSpaceOnUse"><stop offset="0" stop-color="#f4bab3"/><stop offset="0.77" stop-color="#8d6fc7"/><stop offset="0.96" stop-color="#b695e5"/></radialGradient><radialGradient id="radial-gradient-5" cx="-601.85" cy="795.42" r="1" gradientTransform="matrix(4.34, -8.06, -7.19, -3.87, 8875.56, -1691.94)" gradientUnits="userSpaceOnUse"><stop offset="0.02" stop-color="#ab5e75"/><stop offset="0.25" stop-color="#9f577b"/><stop offset="0.67" stop-color="#7f458c"/><stop offset="0.99" stop-color="#61349c"/></radialGradient><linearGradient id="linear-gradient-4" x1="544.1" y1="590.16" x2="540.81" y2="591.94" gradientTransform="matrix(1, 0, 0, -1, 0, 670.99)" gradientUnits="userSpaceOnUse"><stop offset="0" stop-color="#ffff18"/><stop offset="1" stop-color="#ff7400"/></linearGradient><radialGradient id="radial-gradient-6" cx="-606.05" cy="853.2" r="1" gradientTransform="matrix(7.67, -14.24, -25.83, -13.91, 27298.7, 3352.86)" gradientUnits="userSpaceOnUse"><stop offset="0.02" stop-color="#8881bc"/><stop offset="0.29" stop-color="#8375b7"/><stop offset="0.77" stop-color="#7555aa"/><stop offset="0.99" stop-color="#6d43a3"/></radialGradient><radialGradient id="radial-gradient-7" cx="-606.38" cy="837.09" gradientTransform="matrix(8.15, -15.14, -15, -8.07, 18070.07, -2327.54)" xlink:href="#radial-gradient-6"/><radialGradient id="radial-gradient-8" cx="-607.39" cy="856.99" r="1" gradientTransform="matrix(10.14, -18.84, -31.12, -16.76, 33390.36, 3005.57)" gradientUnits="userSpaceOnUse"><stop offset="0.02" stop-color="#725eb0"/><stop offset="0.38" stop-color="#6d52aa"/><stop offset="0.99" stop-color="#61349c"/></radialGradient><linearGradient id="linear-gradient-5" x1="582.65" y1="569.64" x2="559.6" y2="582.05" gradientTransform="matrix(1, 0, 0, -1, 0, 670.99)" gradientUnits="userSpaceOnUse"><stop offset="0" stop-color="#ffff29"/><stop offset="1" stop-color="#ff7e59"/></linearGradient><radialGradient id="radial-gradient-9" cx="-597.57" cy="818.73" r="1" gradientTransform="matrix(3.01, -5.59, -10.15, -5.46, 10742.94, 1259.61)" xlink:href="#radial-gradient-8"/><radialGradient id="radial-gradient-10" cx="-603.96" cy="819.08" gradientTransform="matrix(5.55, -10.31, -10.21, -5.5, 12268.88, -1638.34)" xlink:href="#radial-gradient-6"/><linearGradient id="linear-gradient-6" x1="602.58" y1="557.88" x2="601.19" y2="558.63" gradientTransform="matrix(1, 0, 0, -1, 0, 670.99)" gradientUnits="userSpaceOnUse"><stop offset="0" stop-color="#8dc7ff"/><stop offset="0.32" stop-color="#5c4d86"/></linearGradient><radialGradient id="radial-gradient-11" cx="-471.15" cy="-170.11" r="1" gradientTransform="matrix(0.3, -0.56, -0.55, -0.3, 649.73, -199.42)" gradientUnits="userSpaceOnUse"><stop offset="0.02" stop-color="#8881bc"/><stop offset="0.29" stop-color="#8375b7"/><stop offset="0.77" stop-color="#7555aa"/><stop offset="1" stop-color="#6d43a3"/></radialGradient><linearGradient id="linear-gradient-7" x1="599.15" y1="559.73" x2="597.76" y2="560.48" xlink:href="#linear-gradient-6"/><radialGradient id="radial-gradient-12" cx="-471.15" cy="-170.12" r="1" gradientTransform="matrix(0.3, -0.56, -0.55, -0.3, 646.28, -201.28)" xlink:href="#radial-gradient-11"/><radialGradient id="radial-gradient-13" cx="-471.15" cy="-170.12" r="1" gradientTransform="matrix(0.3, -0.56, -0.55, -0.3, 616.57, -202.31)" gradientUnits="userSpaceOnUse"><stop offset="0" stop-color="#f4bab3"/><stop offset="1" stop-color="#8d6fc7"/></radialGradient><radialGradient id="radial-gradient-14" cx="-471.15" cy="-170.11" r="1" gradientTransform="matrix(0.3, -0.56, -0.55, -0.3, 607.36, -208.86)" xlink:href="#radial-gradient-13"/><radialGradient id="radial-gradient-15" cx="-471.15" cy="-170.11" r="1" gradientTransform="matrix(0.3, -0.56, -0.55, -0.3, 627.92, -204.7)" xlink:href="#radial-gradient-13"/><radialGradient id="radial-gradient-16" cx="-471.15" cy="-170.12" r="1" gradientTransform="matrix(0.3, -0.56, -0.55, -0.3, 634.64, -215.17)" xlink:href="#radial-gradient-13"/><radialGradient id="radial-gradient-17" cx="-471.15" cy="-170.11" r="1" gradientTransform="matrix(0.3, -0.56, -0.55, -0.3, 632.11, -226.06)" xlink:href="#radial-gradient-13"/><radialGradient id="radial-gradient-18" cx="-471.15" cy="-170.11" r="1" gradientTransform="matrix(0.3, -0.56, -0.55, -0.3, 619.13, -231.59)" xlink:href="#radial-gradient-13"/><radialGradient id="radial-gradient-19" cx="-471.15" cy="-170.11" r="1" gradientTransform="matrix(0.3, -0.56, -0.55, -0.3, 609.76, -229.47)" xlink:href="#radial-gradient-13"/><radialGradient id="radial-gradient-20" cx="-471.15" cy="-170.12" r="1" gradientTransform="matrix(0.3, -0.56, -0.55, -0.3, 603.72, -220.66)" xlink:href="#radial-gradient-13"/><linearGradient id="linear-gradient-8" x1="644.2" y1="543.21" x2="614.87" y2="559" gradientTransform="matrix(1, 0, 0, -1, 0, 670.99)" gradientUnits="userSpaceOnUse"><stop offset="0" stop-color="#a43411"/><stop offset="1" stop-color="#c73634"/></linearGradient><linearGradient id="linear-gradient-9" x1="579.39" y1="596.09" x2="580.34" y2="597.85" xlink:href="#linear-gradient-4"/><linearGradient id="linear-gradient-10" x1="557.49" y1="556.55" x2="558.38" y2="558.21" xlink:href="#linear-gradient-4"/><linearGradient id="linear-gradient-11" x1="606.44" y1="541.62" x2="604.83" y2="542.48" xlink:href="#linear-gradient-6"/><linearGradient id="linear-gradient-12" x1="617.38" y1="565.95" x2="615.77" y2="566.82" xlink:href="#linear-gradient-6"/><linearGradient id="linear-gradient-13" x1="611.25" y1="554.87" x2="609.65" y2="555.74" xlink:href="#linear-gradient-6"/><radialGradient id="radial-gradient-21" cx="-639.89" cy="754.71" r="1" gradientTransform="matrix(0.68, -5.34, -5.28, -0.67, 5023.82, -2799.05)" gradientUnits="userSpaceOnUse"><stop offset="0" stop-color="#003cee"/><stop offset="0.06" stop-color="#0036d6"/><stop offset="0.2" stop-color="#00289e"/><stop offset="0.34" stop-color="#001c6d"/><stop offset="0.48" stop-color="#001246"/><stop offset="0.62" stop-color="#000a27"/><stop offset="0.75" stop-color="#000412"/><stop offset="0.88" stop-color="#000104"/><stop offset="1"/></radialGradient><radialGradient id="radial-gradient-22" cx="-647.07" cy="724.11" r="1" gradientTransform="matrix(0.54, -4.26, -4.21, -0.53, 3975.45, -2298.43)" gradientUnits="userSpaceOnUse"><stop offset="0" stop-color="#ff9a00"/><stop offset="0.09" stop-color="#d68100"/><stop offset="0.23" stop-color="#9e5f00"/><stop offset="0.36" stop-color="#6e4200"/><stop offset="0.5" stop-color="#462a00"/><stop offset="0.63" stop-color="#271800"/><stop offset="0.76" stop-color="#120b00"/><stop offset="0.89" stop-color="#040300"/><stop offset="1"/></radialGradient><radialGradient id="radial-gradient-23" cx="-647.07" cy="724.11" r="1" gradientTransform="matrix(0.54, -4.26, -4.21, -0.53, 3939.33, -2291.89)" xlink:href="#radial-gradient-22"/><radialGradient id="radial-gradient-24" cx="-680.29" cy="582.57" r="1" gradientTransform="matrix(0.28, -2.2, -2.18, -0.27, 2014.31, -1224.59)" xlink:href="#radial-gradient-22"/><radialGradient id="radial-gradient-25" cx="-685.08" cy="562.18" r="1" gradientTransform="matrix(0.26, -2.06, -2.03, -0.26, 1937.94, -1161.11)" xlink:href="#radial-gradient-21"/><radialGradient id="radial-gradient-26" cx="-685.08" cy="562.18" r="1" gradientTransform="matrix(0.26, -2.06, -2.03, -0.26, 1927.05, -1136.7)" xlink:href="#radial-gradient-21"/></defs><g id="Layer_2" data-name="Layer 2"><g id="Layer_1-2" data-name="Layer 1"><g class="cls-2"><path class="cls-3" d="M552,313c0,152.41-123.59,276-276,276a274.84,274.84,0,0,1-117.31-26.13c-7-3.3-13.89-6.91-20.58-10.77a276,276,0,0,1-70.85-58.62A274.76,274.76,0,0,1,0,313,275,275,0,0,1,24.57,199.15,268.25,268.25,0,0,1,41.82,167a275.92,275.92,0,0,1,381-87.66c4.82,3.05,9.54,6.21,14.13,9.55,3.84,2.75,7.63,5.64,11.32,8.6a275,275,0,0,1,102,184.94A267.3,267.3,0,0,1,552,313Z" transform="translate(-0.04)"/><path class="cls-4" d="M532,313c0,141.39-114.67,256-256,256a254.65,254.65,0,0,1-108.86-24.27c-6.51-3-12.87-6.39-19.1-10A256.48,256.48,0,0,1,82.3,480.41a252.38,252.38,0,0,1-18.94-24.75A256.19,256.19,0,0,1,42.69,207.42a246.47,246.47,0,0,1,16-29.83A256,256,0,0,1,412.15,96.28q6.72,4.25,13.1,8.85c3.59,2.56,7.09,5.27,10.55,8a255.88,255.88,0,0,1,94.61,171.62A250,250,0,0,1,532,313Z" transform="translate(-0.04)"/><g class="cls-5"><g class="cls-5"><path class="cls-6" d="M530.46,284.67a36.8,36.8,0,0,0-2.29,5.13,41.66,41.66,0,0,1-3.61,7.34,93.37,93.37,0,0,0-4,9.34c-3,6.9-5.16,14.38-7.64,21.47-2.76,7.91-5.35,15.82-8.74,23.46-1.52,3.47-3.73,6.59-5.27,10s-3.06,6.71-4.95,10c-4.66,8-8.88,16.18-13.82,24.06-8.89,14.2-19.58,26.81-29.94,39.92-5.27,6.59-11.41,12.35-17.41,18.31-6.77,6.69-12.73,14.19-19.77,20.74a134.55,134.55,0,0,1-17.29,14.5c-3.54,2.33-6.94,4.93-10.47,7.22-4.52,2.94-9.83,4.6-14.66,7-16,7.73-33.21,12.55-50.08,18-16.53,5.27-32.47,12.5-49.34,16.72-3.46.87-7,1.21-10.48,1.93-3.79.75-7.44,1.84-11.33,2.25-7.75.87-15.25,3.47-23.08,3.95-5.47.27-10.55-.79-15.9-1a169.55,169.55,0,0,0-20.53.89,111.28,111.28,0,0,1-22.71-.86c-6.52-3-12.88-6.4-19.1-10l.71.22c4.45,1.44,8.59,4,13.07,5.05,4.79,1.09,9.76,1.88,14.7,2.72a58.7,58.7,0,0,0,19.57.11c3.47-.56,7-1,10.44-1.7,3.77-.79,7.57.19,11.34-.67,5.27-1.32,11-.26,16.38-.46,9.23-.3,18.23-3.69,27.13-5.5,9.87-2,19.24-5.57,29.3-6.77,5.73-.68,10.24-2.64,15.67-4.34,4.67-1.43,7.65-4,11.52-7,7.46-5.57,15-11.29,23.73-14.9a139.55,139.55,0,0,1,27-7.91,48,48,0,0,0,21.62-10.28c2.57-2.31,5-4.72,7.54-7a110.14,110.14,0,0,0,9.23-8.58c3.16-3.63,6.77-6.93,9.9-10.54,3.46-4,6.3-8.54,9.72-12.58,5.46-6.44,13.79-9.79,19.17-16.34,1.13-1.32,1.88-3,3.06-4.34s2.51-2.06,3.26-3.83c.92-2.15,3.14-7.12,1.93-9.53-2.41-4.86-15.19,7.64-17.22,9.6-3.16,3-5.75,6-9.56,8.21a57.94,57.94,0,0,1-7,3.73c-4.08,1.66-8.78,1.84-13.08,2.75-11.94,2.56-24.11,4-36.15,5.84-16.32,2.52-32.81,5.94-48.87,9.86-15,3.66-29.9,7.9-44.93,11.45-8,1.92-16,3.95-24,5.69-9.79,2.19-19.4,5.2-29.23,7.08-16.2,2.94-32.49,6.52-49,7-12.95.34-25.79,1-38.76,1-17.47,0-36.2,1.76-53.33-2.34a3.69,3.69,0,0,1-.65-.18,252.38,252.38,0,0,1-18.94-24.75A87.91,87.91,0,0,0,83,461.8c4.9.87,10.09,2,14.15,4.93a29.47,29.47,0,0,0,8.48,4.78c11.15,3.59,21.09,3.36,32.25.08q6.27-1.86,12.43-3.87c3.05-1,5.84-2.84,8.89-3.67,8.63-2.25,17.55-3.87,26.25-5.86,4.14-.95,8.48-1.74,12.55-3,4.59-1.44,8.88-3.77,13.29-5.57,8.43-3.47,16.27-7,25.32-8.6,5.68-.93,12.27-1.64,17.47-4.28,1.69-.83,4.22-2,4-4.26-.31-2.79-4-2-6-1.7-5.84,1-11.78,1.54-17.58,3.09a156.43,156.43,0,0,1-31.31,4.82c-15.89,1.05-32.09,2-48,1.17-12.65-.64-25.38-1.78-38-1.66-12.24.12-24.14-.93-35.78-4.78-13.15-4.32-26.52-8.28-38.68-14.95a256.57,256.57,0,0,1,.08-211.07c-1.7,4.67-3.12,9.46-5.09,14a69.73,69.73,0,0,0-6.2,27.67,80.79,80.79,0,0,1-.08,11.22c-.65,4.74-1,7.8.34,12.58,1,3.51,1.32,6.9,2.86,10.28a9.31,9.31,0,0,0,2,2.82,25.88,25.88,0,0,1,2,3.36c2.07,3.39,5.05,7.91,8.62,9.86A40.79,40.79,0,0,0,54.63,302c3,.85,4.18,1.2,7.2.1a30.31,30.31,0,0,1,7.61-1.95,19.58,19.58,0,0,1,4.21.94c1.81.3,3.59.14,5.43.52,7.53,1.59,14.87,3.43,22.6,3.35,6.06-.06,12,.95,18.16.95,7.38,0,14.68.22,22-.71,4.94-.65,10.25-1.89,15.18-2.19s10.22.15,15.25.08c17.52-.28,35.59-4.49,50.81-13.34A110.31,110.31,0,0,1,249,278.7c11.68-3.36,23.61-6.67,35.59-8.93a140.84,140.84,0,0,0,32.22-10.4,86.48,86.48,0,0,0,13-7.58c3.77-2.56,7.91-4.51,11.52-7.18,10.55-7.8,19.77-17,29-26.26,5.27-5.27,10.62-10.54,16.13-15.59,4.55-4.15,9.37-6,15.21-7.42,9.31-2.22,14.5-12.69,19.51-20.19,6.33-9.45,11.57-20.29,11.86-31.93a66.65,66.65,0,0,0-1.09-14.31,23.87,23.87,0,0,0-1.77-6.14A22.28,22.28,0,0,1,428.3,119c-.27-1.12-.31-2.3-.53-3.31s-.75-2-1-2.86c-.53-2.19-1.63-5.21-1.48-7.62v-.14c3.58,2.55,7.09,5.27,10.54,8a16.83,16.83,0,0,1-.07,3c-.23,1.21-.65,2.23-.87,3.42-.31,1.78-1,2.8-.94,4.75a24.6,24.6,0,0,0,.45,5.81c1.24,4.75,4.33,9.15,4.29,14.16a39.24,39.24,0,0,1-3.32,14.74c-1.8,4.52-3.75,8.7-5.94,13a51,51,0,0,1-5,8.13,57.89,57.89,0,0,0-5.27,7.38,69.47,69.47,0,0,0-3.06,6.4c-1.66,4-4.34,6-7.34,9-6.18,5.95-13.91,10.78-20.54,16.5a98,98,0,0,0-14.72,15.2c-1.89,2.64-11.52,10.14-8.92,14.09,1.16,1.74,4.82,1.18,6.47,1.18a27.12,27.12,0,0,0,11-2.45c9.37-4.26,18.72-9.31,28.59-12.25,4.44-1.32,9.23-2,13.41-3.95a127.52,127.52,0,0,0,14.69-8.05c3.73-2.31,5.95-5.28,8.74-8.6,1.59-1.88,3.8-2.94,5.54-4.66,2-2.05,3.31-4.42,5.57-6.18A70.22,70.22,0,0,0,473,188.17c3.67-5.27,5-11.86,6.6-17.85a24,24,0,0,0,1.05-4.75c.07-2,0-4.14,0-6.18v-.33A254,254,0,0,1,530.46,284.67Z" transform="translate(-0.04)"/></g><g class="cls-5"><path class="cls-6" d="M413.77,117.84c-1,5.8-1.5,11.52-2.63,17.31s-1.43,12.25-3.77,17.6c-4,9.22-5.2,19.46-11.44,27.6-2.64,3.46-4.72,7.19-8.11,10.09a28.59,28.59,0,0,1-4.06,2.23c-1.32.87-2.71,2.19-3.95,3.12-6.71,4.9-13.83,10-19.77,15.82-6.37,6.26-12.43,12.4-20,17.33-2.27,1.46-4.64,2.51-7,3.81a50.11,50.11,0,0,1-5.66,3.23,26,26,0,0,0-6.69,3.16,28.86,28.86,0,0,1-5.92,3.36c-3.61,1.42-7.12,3.12-10.73,4.52-1.66.67-3.4,1-5.09,1.65-4.78,1.82-8.29,1.66-14.5,2.14-1.95-.85-.29-.93,1.32-1.64a7.25,7.25,0,0,0,2.56-2,33.37,33.37,0,0,1,4.36-3.95c2.72-2,6.3-2.94,9.23-4.7,3.73-2.34,7.42-5.17,11-7.69,3.06-2.11,5.35-5.43,7.91-8.06,2.71-2.86,6-5.42,9-8.1,3.47-3.08,6.44-6.59,9.95-9.64A37,37,0,0,0,348.66,194c1-1.81,2.56-3.13,3.57-5a45.18,45.18,0,0,0,2.86-5.19c.87-2.15,2-4.16,2.94-6.23,1.05-2.41,1-5.27,1.54-7.78,1.58-7.54,3.1-15.15,4.48-22.73a126.8,126.8,0,0,0,1.44-19.46c.22-6.18,2-12.2,2-18.45a15.07,15.07,0,0,0-.9-6.75c-1.31-2.94-2.79-5.5-3.84-8.55A49.66,49.66,0,0,0,345.6,70.27c-1.2-.87-5-3.16-8.78-5.91a253.84,253.84,0,0,1,75.45,31.93A50.16,50.16,0,0,1,413.77,117.84Z" transform="translate(-0.04)"/></g><g class="cls-5"><path class="cls-6" d="M339.57,118.25c-.56,3.24-2.52,5.69-3.43,8.77a75.34,75.34,0,0,0-2.34,10.7c-.75,5.5-.26,11-.89,16.49a94.75,94.75,0,0,1-9.23,30c-4.6,9.37-12.47,17.06-21.09,22.87-8.88,6.06-18.75,10.69-28.47,15.17-5.53,2.53-11.37,3.58-17,5.73-4.74,1.77-9.41,3.8-14.13,5.64s-9,5-13.63,6.53c-2.9.93-5.76,1.91-8.66,3-5,1.78-9.5,4.42-14.35,6.49a124,124,0,0,1-21.25,7c-7.19,1.68-14.15.59-21.39-.31a175.72,175.72,0,0,1-18.12-2.63c-11-2.64-22.75-1.89-33.93-1.89-8.48,0-18.27.83-25.77-3.77-2.15-1.31-4.52-2.71-5.72-5-1.48-2.8-1.66-6.33-2.31-9.35-1.32-6.21-7.22-10.44-11.25-15-5.28-6-7.28-13.48-8.33-21.17a57,57,0,0,1,.46-19.93A254.83,254.83,0,0,1,105.58,122c-4.29,8.13-7.53,16.76-11.3,25.16-5.68,12.57-10.69,26.28-10.2,40.33.19,5.51.63,11.68,3.57,16.46,2.27,3.69,6,6.36,9.61,8.55,5.92,3.55,11.86,7.46,18.23,9.9,7.2,2.75,14.39,5.39,21.55,8.14,4.18,1.59,8.21,3.39,12.73,4a117.69,117.69,0,0,0,16.69.14c19.69-.52,37.88-9.75,56.42-15.32,6-1.81,12.13-2.64,18-4.59a76.43,76.43,0,0,0,10.25-4.68c8.24-4.26,17.25-7.46,25-12.77a106.37,106.37,0,0,0,20.72-18.86c4.6-5.51,6.67-11,8.92-17.78,4.44-13.33,6.15-26.17,7.34-40.08.53-5.9,2.57-11.17,4-16.9.89-3.8.37-8.18-2.64-10.93-6.1-5.38-15.1-8.74-22.91-10.54-4.74-1.14-9.22-2.64-14.15-2.64H262.9c-4.82,0-9.14-1-13.78-1-5.46,0-10.55,1.54-15.94,2a156.31,156.31,0,0,0-16.83,2.11c-6.59,1.16-13,3.79-19.36,5.72a110.36,110.36,0,0,0-35.39,17.86c-2.64,2-5.5,3.65-8.25,5.45-2.42,1.62-3.29,3.47-4.83,5.88a49.67,49.67,0,0,0-6.77,15.63,45.72,45.72,0,0,0-.87,12.24A97.46,97.46,0,0,1,139.26,162c-1.32,7.68-8.7,19.1-.57,25.24A10.57,10.57,0,0,0,146.6,189a89.13,89.13,0,0,0,12.27-2.86c11.27-3.16,23-6.93,34.73-8.4,3.55-.45,6.89-.19,10.4-1.08,2.19-.61,4.26-1.32,6.47-1.74,5.13-.94,10.26-4.26,14.28-7.61,1.84-1.54,3.36-3.43,5.27-5,2.56-2.11,5.64-3.5,8.09-5.77,3.51-3.23,6.86-6.73,10.14-10.2,6.73-7.08,11.6-15.93,17.32-23.72,3.62-5,7.64-10.32,8.63-16.46.75-4.75-5.05-7.28-8.59-8.78a23.74,23.74,0,0,0-12.21-1.7c-5.76,1-11,4.45-16.38,6.75-11.79,5.16-24.94,6.44-35.18,14.72-3.73,3-3.55,5.84-4.71,10a37.46,37.46,0,0,1-2.9,5.72c-1.54,2.86-1.74,3.57-.95,6.59s1.52,7,4.95,8.35c3,1.18,7.75.16,10.32-1.46a22.54,22.54,0,0,1,4.7-2.86c1.1-.42,3.77-1.66,4.83-1.32,1.88.71.49,1.87-.31,2.9a14.31,14.31,0,0,0-1.7,2.9,8.93,8.93,0,0,1-1.13,2.94c-3,3.43-9,5.15-13.18,6.59-3.65,1.32-6.39,2.78-10.39,2.82-5.39,0-3.2-3.95-4-7.91-1.06-5-6.83-6.88-7.46-12.08s1-11,3.08-15.52a38.65,38.65,0,0,1,3.36-5.46c2-3,4.93-4.85,8-6.9,9-5.9,20.15-8.74,30.31-12.16s21.25-4,31.31-7.61c6.85-2.45,14.05-3.24,21.09-4.52,6.51-1.16,12.24,1.4,15,7.34,2.87,6.3,6.26,13.12,4.25,20.09-2.71,9.59-5.9,19.12-11,27.79-6.22,10.69-13.79,20.79-25,26.71-7.91,4.17-16.51,6.51-24.86,9.63a97.67,97.67,0,0,1-19.6,5.52c-10.44,1.58-20,7.75-30.21,10.32A411.38,411.38,0,0,1,143,203.9a50.52,50.52,0,0,1-15.28.46c-2.42-.34-4.64-.12-6.94-1.14-1.62-.71-3.28-1.47-4.89-2.14-5.57-2.42-11-6.41-10.33-13.18.6-6.37,2.91-12.77,4.11-19,.83-4.15.91-8.25,1.92-12.4.76-3.16,1.47-6.39,2.34-9.53a26.92,26.92,0,0,1,3.28-7.75c3-4.15,5.27-9,8.4-12.95a33.34,33.34,0,0,0,3.61-4.68,18.13,18.13,0,0,1,2.75-4.22c1.2-1.32,2-3,3.31-4.36a58.6,58.6,0,0,1,8.07-6.14A111.06,111.06,0,0,1,163,95.29c6.75-2.94,13.79-4.91,20.72-7.24,6.22-2.15,12-5.53,18.16-7.91a95.25,95.25,0,0,1,21.7-5.27,351.25,351.25,0,0,1,44.55-3.09c18.69.07,39.4-7,57.14,1.92a19.5,19.5,0,0,1,9.95,10.44,58.48,58.48,0,0,1,4.52,23.72C339.72,111.31,340.13,114.9,339.57,118.25Z" transform="translate(-0.04)"/></g></g><g class="cls-7"><g class="cls-7"><path class="cls-6" d="M50.23,198.68c1.32,3.45,3,6.47,4.13,10a30.17,30.17,0,0,0,3,7.15c1.4,2.26,2.24,4.85,3.58,7.18a36.25,36.25,0,0,1,3.49,8.18c.54,2.11.63,4.34,1.21,6.48.74,2.72,1.48,5.46,2.24,8.19a18.64,18.64,0,0,0,2.33,4.79c1,1.6,2.17,4.12,3.73,5.27,5,3.57,12.29,2.05,18.12,1.42,5.27-.56,10.67-.6,16-1.32a47.26,47.26,0,0,1,8.41-.19,61.21,61.21,0,0,1,8,.91c2.3.44,4.53.51,6.83.88,3.31.53,6.59,1.32,9.91,1.66,3.71.29,7.52.83,11.22.91,5.27.09,10.72-.45,16,.12a135.52,135.52,0,0,0,13.94,1.32c6.08,0,12.14-1.81,17.78-3.87,9.4-3.42,19.09-6.22,28.53-9.67a64.2,64.2,0,0,0,9.8-5.27c2.89-1.69,6-2.8,8.77-4.65a51.46,51.46,0,0,1,17.13-6.75c5.93-1.32,11.67-3.47,17.54-4.85,4-.92,7.73-2.93,11.66-3.44-.74,3.08-7.48,4.2-9.89,5.07-5.57,2-11.62,3.09-17,5.51-3.51,1.6-6,4.64-8.79,7.22-2.63,2.38-4.47,4.84-7.4,6.8a25.2,25.2,0,0,1-9.59,4c-7.58,1.51-15,4.23-22.52,5.9s-14.94,3.4-21.88,6.59c-1.93.9-7.58,3.13-7.82,5.91-.18,2.22,2.52,1.41,4.09,1.41,3.37,0,7.83-.81,11,.52a40.05,40.05,0,0,0,7.09,2.72A32,32,0,0,0,228,272.92c7.25-2.82,15.17-4.26,22.79-5.71,5.27-1,10.4-2.53,15.66-3.64a106.8,106.8,0,0,1,12.23-1.45c6-.56,11.93-1.25,17.85-2.24,4.73-.8,9.91-1.32,14.25-3.38,3.59-1.77,7.81-2.88,11-5.36.84-.65,5.64-4.79,6.76-3.84,2.33,2-10.94,9.55-11.86,10.17a71.75,71.75,0,0,1-13.58,6.71c-6,2.46-12.23,3.54-18.45,5.11-7.17,1.78-14.32,3.26-21.45,5.08s-14.5,2.72-21.63,5.11a74.38,74.38,0,0,0-10.46,4.1c-3.09,1.58-6.37,2.63-9.41,4.28-6.59,3.52-12.75,8.46-19.88,10.76a84.38,84.38,0,0,1-19.15,4.21c-8.56.69-17.14-.51-25.6-1.39A217.24,217.24,0,0,0,130.93,300c-8.07.13-16.12,1.82-24.18,2.2-5.55.26-10-1.71-15.1-3.61a90.23,90.23,0,0,1-15.9-8.05,26.78,26.78,0,0,0-15-4.09,19.25,19.25,0,0,0-3.34.77,5.64,5.64,0,0,1-3.61-1c-4.74-2.23-9.5-5.89-11.86-10.8a57.48,57.48,0,0,1-4.44-16.59,77.39,77.39,0,0,1-.12-9.87c0-4.36-.79-8.66-.75-13.05,0-6.93-.79-14.28,1.39-21,2.05-6.31,6.25-12.21,10.09-17.53,2.19-3,3.95-6.26,6.23-9.23.81,1.59-1.11,4.62-1.5,6.25C52.34,196.71,51.46,201,50.23,198.68Z" transform="translate(-0.04)"/></g><g class="cls-7"><path class="cls-6" d="M375.67,236.5c-2.05,2.64-5.72,6-6.29,9.49s3.22,2.87,5.67,2.51c5.27-.83,10.81-1.32,15.81-3.4,3-1.23,5.74-2.93,8.7-4.17,2.46-1,5.08-1.41,7.53-2.44,5.84-2.46,12.13-3.77,17.91-6.43a51.19,51.19,0,0,0,13.64-10c2.85-2.73,5.59-4.85,7.56-8.37,1.43-2.63,3.15-5.14,4.33-7.91a44.45,44.45,0,0,0,2.84-11.53,26.37,26.37,0,0,0,.08-6.34c-.66-4.82-5.51-5.27-9.61-4.7-5,.7-9.11,3.64-12.85,6.85s-6.59,6.8-10.68,9.23c-4.49,2.74-8.87,5.51-13.18,8.47a39.37,39.37,0,0,0-6.47,5.1c-1.64,1.68-3.22,3.47-5,5a45.48,45.48,0,0,1-5.84,4.07c-1.64,1-3.16,2.48-4.85,3.36a24,24,0,0,0-6,4.28,16.61,16.61,0,0,0-3.25,3.84C374.32,236,374.6,239.24,375.67,236.5Z" transform="translate(-0.04)"/></g><g class="cls-7"><path class="cls-6" d="M434.19,166.57c.87-2.71,1.45-3.73,3.95-5,1.56-.82,2.64-1,3.76.7,2,3.33.57,7.39-.75,10.61-.95,2.34-4.73,4.7-6.46,1.75-1.16-2-1.12-7.91,1.65-8.74Z" transform="translate(-0.04)"/></g><g class="cls-7"><path class="cls-6" d="M220.09,265.76c1.32-2.44,1.62-2.7,4-3.58a14.64,14.64,0,0,1,4.7-1.43c2-.2,4.22-1.32,6.26-.55,3.14,1.12,2.55,3.87.43,5.82a6.48,6.48,0,0,1-3.14,1.88,22.43,22.43,0,0,1-5,.71c-2.88,0-5.27.12-7.78-1.57a1.17,1.17,0,0,1,.09-.78,1.15,1.15,0,0,1,.57-.54Z" transform="translate(-0.04)"/></g><g class="cls-7"><path class="cls-6" d="M100.19,446.25a78.29,78.29,0,0,0,25.46,4.36,263,263,0,0,0,30.75-.92c6.81-.65,13.55-.48,20.33-1.44,3.28-.47,6.4-.33,9.69-.49,1.88-.07,3.86-1.19,5.7-.61,7.14,2.17-5.53,6.27-7,7-5.15,2.56-10.91,3.44-16.38,5-2.11.61-4.26,1.22-6.33,1.93a48.89,48.89,0,0,1-5.85,2.17c-8.4,1.84-16.79,2.64-25.16,4.44a24.64,24.64,0,0,1-9.67.57c-3.34-.62-6.47-2.63-9.45-4.12a73.09,73.09,0,0,1-10.7-5.86,35.66,35.66,0,0,1-4.89-4,7.57,7.57,0,0,1-1.32-2.9c-.84-2.16-.8-3,1.06-4.61a5.27,5.27,0,0,1,5.06-1.13C101.53,445.91,101.57,446.1,100.19,446.25Z" transform="translate(-0.04)"/></g><g class="cls-7"><path class="cls-6" d="M317.38,530.5a42.18,42.18,0,0,0-12,5.49c-1.61,1.13-3.59,3.07-1.22,4.52,3.21,2,8.41.91,11.87.6,5.95-.54,11.86-1.63,17.76-2.41,4-.54,8-1,12-1.77a125.09,125.09,0,0,0,15.28-4.4,46.21,46.21,0,0,0,10.55-4.9A89.74,89.74,0,0,0,381.7,521c4.1-3.44,9.51-6.13,11.09-11.62,1.32-4.58-8.57-2.93-10.55-2.64a109.13,109.13,0,0,0-21.52,5.36c-3,1.07-6.25,1.89-9.23,3.18-3.95,1.75-7.73,3.84-11.77,5.39-1.91.75-3.58,1.95-5.52,2.64-1.7.63-3.41,1.2-5.1,1.88s-3.77,1.62-5.7,2.24C319.06,529,314.68,530.16,317.38,530.5Z" transform="translate(-0.04)"/></g><g class="cls-7"><path class="cls-6" d="M396.38,497.2c.75-2.46,2.33-3.6,4.16-5.38,1.42-1.38,2.78-2.87,4.85-3.16,1.53-.22,3.95,1.54,3.28,3.29a12.64,12.64,0,0,1-2.07,2.64,7.87,7.87,0,0,1-2.71,2.64,9.84,9.84,0,0,1-7,.44Z" transform="translate(-0.04)"/></g><g class="cls-7"><path class="cls-6" d="M422.06,437.26a34.14,34.14,0,0,1-5.44,2.64,40.35,40.35,0,0,1-4.35.75c-4.36.68-8.87,1-13.27,1.42-5.63.55-11.22,1.32-16.85,1.78-9.94.75-20.39,1.61-29.89,4.67a133.75,133.75,0,0,0-23.12,9.84,121.31,121.31,0,0,0-18.6,11.86,56.9,56.9,0,0,0-5.36,5.17,14.52,14.52,0,0,0-3,3.95c-1,2.35-.09,4,2,5.27,3.21,2.05,7.09,2.23,10.76,2.73,5.44.75,10.86,1.44,16.28,2.28a157.4,157.4,0,0,0,16.92,1.85c5.81.26,11.86.14,17.4-2a79.62,79.62,0,0,0,11.39-5.12c3.56-2.05,7.1-4.06,10.48-6.4a52.42,52.42,0,0,0,7.11-5c.94-.88,1.89-1.64,2.86-2.46,1.52-1.32,2.64-2.91,4.16-4.19a59.62,59.62,0,0,0,9.22-9.7c2.09-2.74,4.62-5.08,6.67-7.82,1.21-1.63,2.48-2.49,3.2-4.49A29.74,29.74,0,0,0,422.06,437.26Z" transform="translate(-0.04)"/></g><g class="cls-7"><path class="cls-6" d="M434,429.12a14.48,14.48,0,0,1,3.67-4.38c1.2-1.13,2.78-3.12,4.44-3.65a2.42,2.42,0,0,1,2.49.38,3.39,3.39,0,0,1,.64,1.18,3.2,3.2,0,0,1,.1,1.34c-.34,2-2.3,3.56-4,4.43-2.06,1.07-3.28.52-5.45.22Z" transform="translate(-0.04)"/></g><g class="cls-7"><path class="cls-6" d="M509.61,358.29a18.21,18.21,0,0,0-2.95,2.87,59.79,59.79,0,0,1-4,5.71,42.68,42.68,0,0,0-4.09,6.21c-1.56,2.71-3.39,5.27-4.84,8-3.14,5.95-5.63,12.23-8.44,18.34-1.41,3.06-2.63,6.2-3.95,9.23A40.59,40.59,0,0,0,478,418.89c-.41,2.56-1.07,6.94,2.37,7.41,4.27.58,8.57-3.1,11.68-5.55a93.33,93.33,0,0,0,20.64-23.26c5.53-8.76,10.9-19.27,9.51-29.93a57.68,57.68,0,0,1,.32-14.5c.66-5.1,2.23-10.2,2.32-15.37,0-3.66.67-7.25-.13-10.86a4.67,4.67,0,0,0-1.56-3.06c-.95-.55-1.6,0-2.46.65a19.17,19.17,0,0,0-6,7.18c-1.69,3.51-1.78,7.29-3.2,10.89a38.67,38.67,0,0,1-1.39,3.77c-.53,1-1.17,1.94-1.71,2.94a24.88,24.88,0,0,0-1.77,5.65c-.31,1.2-.5,2.32-.83,3.52-.26.94-.67,1.94-.85,2.89S505.09,363,509.61,358.29Z" transform="translate(-0.04)"/></g><g class="cls-7"><path class="cls-6" d="M470.12,421.56c-.85.85-6,5.86-4,7.13.55.36,2.08,0,2.63-.25a10.51,10.51,0,0,0,2.84-2A3.5,3.5,0,0,0,473,423c0-2.25-1.42-2.19-3.32-1.42Z" transform="translate(-0.04)"/></g><g class="cls-7"><path class="cls-6" d="M482.48,433.45c1.11-1.47,1.43-2.11,3-2.71a18.37,18.37,0,0,1,3.59-1.62c1.65-.27,2.41.35,2.54,2,.24,2.84-3.25,6.5-4.82,8.52a40.09,40.09,0,0,1-6.59,7.06c-3.57,2.79-6.17-1.71-4.84-5.06.8-2,1.13-4.43,2.4-6.23,2-2.84,4.93-2.82,8.09-3.4Z" transform="translate(-0.04)"/></g><g class="cls-7"><path class="cls-6" d="M206.53,125.18a12.22,12.22,0,0,0-6,7.91c-.5,1.62-1.13,5.07.23,6.47,2.32,2.39,8.54-.23,10.79-1.1,4.39-1.68,8.86-4.19,13.43-5.27,8.64-2,18.11-2.79,25.54-8.1a46,46,0,0,0,10.69-11.36c1.87-2.73,4.33-5,4.58-8.47.49-7.11-9.45-7.59-14.13-6.49a139.6,139.6,0,0,0-29,9.82c-5.45,2.63-12.23,6-16.08,10.88a18.6,18.6,0,0,0-2.32,4.44C203.75,125,202.7,128.26,206.53,125.18Z" transform="translate(-0.04)"/></g><g class="cls-7"><path class="cls-6" d="M225.09,145.16c-1.17-2.64-1.75-2.86.2-4.46a31.8,31.8,0,0,1,5.27-3.28,15.52,15.52,0,0,1,7.14-1.61c5,.6,2.72,6.21,1.18,8.91-1,1.7-1.68,3.27-3.29,4.18-1.89,1.08-3.17,1.63-5.27.94a11.74,11.74,0,0,1-3.95-2.52c-.85-.75-2.81-2.12-2.64-3.47l.62-.12Z" transform="translate(-0.04)"/></g><g class="cls-7"><path class="cls-6" d="M190.11,206.53c.12-2.36-.08-2.88,1.4-4.37,2.18-2.24,5.4-4,8-5.62a80.49,80.49,0,0,1,18.9-8.8,111.64,111.64,0,0,1,18.13-4.2c4.58-.72,8.92-2.23,13.53-2.88,7.11-1,15.82-4.41,21.5,2.32,4.56,5.46-3.87,12.68-7.91,15.65a30.13,30.13,0,0,1-11.45,5c-4.92,1.24-9.77,2.72-14.68,4-9.14,2.26-17.63,6.59-26.37,10-6,2.34-10.32,2.12-15.73-1.47C192.47,214.18,187.47,209,190.11,206.53Z" transform="translate(-0.04)"/></g><g class="cls-7"><path class="cls-6" d="M272.9,165.86c-1.19,2.19-4.14,6.2-.33,7.57,2.16.77,3.71-1,5.27-2.2s3.86-2.64,5.05-4.66a3.26,3.26,0,0,0,.67-1.46,3.38,3.38,0,0,0-.09-1.61,3.39,3.39,0,0,0-2.22-2.2c-4.46-2-6.59,2.29-9.13,5.27Z" transform="translate(-0.04)"/></g><g class="cls-7"><path class="cls-6" d="M342.85,122.33c-4,4.11-6.34,8.9-5.7,14.74s4.46,6.93,9.23,4.54a27.85,27.85,0,0,0,4.14-2.12c1.32-1,2.13-3,3.13-4.3a15.49,15.49,0,0,0,3.42-10c0-3.6.42-7.45-.54-10.93-.53-1.92-1.32-4.51-3-5.69-2-1.32-3.53.43-5,1.62a12.1,12.1,0,0,0-3.59,3.43,41.25,41.25,0,0,0-3.6,9.43Z" transform="translate(-0.04)"/></g><g class="cls-7"><path class="cls-6" d="M262.19,245.07c.17-2.72.1-2.9,2.06-4.4a45.61,45.61,0,0,1,4.52-3.32,25.93,25.93,0,0,1,9.78-3,13.85,13.85,0,0,1,7.91,1.32c1.54.87,1.83,2.63,1.45,4.46-.54,2.57-3.1,4.21-5,5.72s-4.55,3.55-7,4.13a18,18,0,0,1-8.95.35c-1.79-.47-5.57-1.22-5.54-3.77Z" transform="translate(-0.04)"/></g><g class="cls-7"><path class="cls-6" d="M297.16,220.09c1.76-2.47,2.86-4.67,5.54-6.3,1.16-.71,4.07-2.88,5.56-2.88a3.09,3.09,0,0,1,2.45,2.4c.16,1.25-1.07,2.92-1.74,3.95a14.5,14.5,0,0,1-6.07,5.17,5,5,0,0,1-3.59.39c-1.32-.37-1.79-1.59-2.86-2Z" transform="translate(-0.04)"/></g><g class="cls-7"><path class="cls-6" d="M158,114.48c-3.51,3.48-6.37,7.15-7.5,12.13a3.81,3.81,0,0,0,1,4.18c1.86,1.65,4.23.75,6.41,0,6.09-2.07,11.86-5.7,17.13-9.22,4.86-3.19,11.35-4.09,15.07-8.73,2-2.5,4.13-5.27,2.19-8.59-1.69-2.83-6-4-9-4.1a26.35,26.35,0,0,0-12.54,3.37A43.24,43.24,0,0,0,158,114.48Z" transform="translate(-0.04)"/></g><g class="cls-7"><path class="cls-6" d="M138,99.49c6.75-1.32,12.57-2.7,18.45-6.3,1.19-.71,2.37-1,3.51-1.7s1.31-1.4,2.16-2.19c-.58-2.74-8-1.09-9.68-.36-2.26.94-4.56,2.28-6.76,3.38a24.75,24.75,0,0,0-3.43,1.87c-2.2,1.64-3.51,4.47-5,6.72Z" transform="translate(-0.04)"/></g></g><g class="cls-8"><g class="cls-8"><path class="cls-6" d="M347.84,249.88a59.53,59.53,0,0,1-6,3.32c-3.39,1.38-6.47,3.33-9.83,4.78-3.95,1.72-8.23,2.85-12.3,4.25a83.24,83.24,0,0,0-16.51,7.42c-5.28,3.21-10.31,7.91-13,13.49-1.55,3.23-2.18,7.59-.29,10.85a11.75,11.75,0,0,0,4.85,4.85c3.46,1.55,6.84.57,10.32-.25a53.85,53.85,0,0,0,12.69-4.49c2.15-1.12,4.19-2.43,6.34-3.56s4.74-2.06,7.11-3c1.83-.75,3.7-1.41,5.58-2a21.44,21.44,0,0,0,6.41-3.43,33.31,33.31,0,0,0,9.4-10.37c2.94-5.27,4.47-10.65,3.45-16.56C355.25,250.59,351.89,248.35,347.84,249.88Z" transform="translate(-0.04)"/></g><g class="cls-8"><path class="cls-6" d="M283.12,282.66c-1.31-1.76-2.16-1.59-4.27-1.47a35.92,35.92,0,0,0-4.83.86c-7.91,1.66-16,2.5-23.83,4.52A53.59,53.59,0,0,0,237.64,291c-4,2.14-8.08,4.05-12,6.38a93.59,93.59,0,0,1-28.77,11.79c-6.37,1.31-12.74,2.63-19.13,3.82-3.85.71-7.75,1.32-11.59,2.11s-7.63,1.91-11.48,2.76a145.71,145.71,0,0,0-20.28,5.7c-6.74,2.54-13.6,4.9-18.88,10-2.7,2.64-6.16,6.44-6.15,10.45a15.54,15.54,0,0,0,2.63,7.91c5.28,8.72,15.41,13.9,24.22,18.37,12.2,6.19,26.72,7,40.07,8.54a166.16,166.16,0,0,0,52.21-2.64c7.71-1.56,15.47-3.09,23.21-4.54,9.33-1.75,18.77-3,28.07-4.94,7.66-1.63,15.37-3.42,22.9-5.61a94.88,94.88,0,0,0,12.14-4.25,99.94,99.94,0,0,0,10-5.52,71.21,71.21,0,0,0,7.9-5.08,35.42,35.42,0,0,0,5.57-6.1c2.74-3.53,4.5-7.43,6.69-11.27a83.55,83.55,0,0,1,4.75-7.85c1.78-2.44,3.87-4.73,5.81-7.05,4.06-4.89,9-9.11,12.84-14.19,2.21-2.95,4.37-6.66,4.68-10.39.21-2.55.22-5.16-2.44-6.32a16,16,0,0,0-8.19-.87,49.73,49.73,0,0,0-8.09,2.31,76.57,76.57,0,0,0-13.54,5.35C329.94,295.72,319.25,303,307,305.55c-5,1.08-10.1,1.63-14.94-.37a50.29,50.29,0,0,1-10.33-5.4c-4.21-3-2.93-6.66-1.09-10.82C281.45,287.11,283.74,283.12,283.12,282.66Z" transform="translate(-0.04)"/></g><g class="cls-8"><path class="cls-6" d="M517.69,226a90.75,90.75,0,0,1-1.07,13.27c-.27,2-.6,3.95-.91,5.88-.41,2.63-1.66,4.95-2.28,7.55-1.1,4.65-3.32,8.68-5.27,13s-3.27,9-5.27,13.46c-5.46,12.55-8.71,25.84-14,38.43-2.64,6.23-5,12.68-7.91,18.78-2.63,5.5-5.76,10.75-8.49,16.18-1,2-3.83,5.78-1.7,7.91,1.7,1.69,4.8.13,6.59-.83,7.17-3.83,10.22-12.91,14.64-19.28,2.23-3.22,5.68-5.64,8-8.83,3-4.16,6.65-9.13,8.66-13.84,4.16-9.74,6.72-19.83,10.33-29.77,3-8.21,3.44-16.17,3.44-24.79,0-3.61.41-7.23-.68-10.69C520.73,249.21,519.94,243.82,517.69,226Z" transform="translate(-0.04)"/></g><g class="cls-8"><path class="cls-6" d="M504.38,238.4c-3,2.91-9.23,10.07-6.28,14.83,1.63,2.63,6.34,1.47,8-.77,1.42-1.92,1.12-5.14,1.12-7.39,0-1.24.4-3.1,0-4.22s-1.59-1.32-1.84-2.45Z" transform="translate(-0.04)"/></g><g class="cls-8"><path class="cls-6" d="M446.33,376.4A102,102,0,0,0,435.19,384,70.73,70.73,0,0,1,424.48,390a111.36,111.36,0,0,1-29.75,9.3c-13.18,2.31-26.73,4.06-39.55,8.29-9.72,3.2-19.36,6.59-29,10-9.1,3.22-19.43,5.52-27.52,11-2,1.31-4.67,3.41-4,6.1,1.13,4.29,10,4.47,13.09,4.6,9.46.39,19.06,0,28.54,0,4.54,0,9.1-.25,13.64.2a85.92,85.92,0,0,0,17,0c7.11-.64,14.5-.49,21.38-2.64,13.19-4.23,26.27-9.23,39.18-14.27,11.57-4.58,28.36-14,27.35-28.48C454.42,387.79,450.55,379,446.33,376.4Z" transform="translate(-0.04)"/></g><g class="cls-8"><path class="cls-6" d="M465.36,387.79c-1.92-4-2.44-5-.35-8.65,1.32-2.32,5.27-5.73,8.22-5.75,5.89,0,6.08,6.75,4.76,10.85-1.16,3.59-2.64,9-6.92,9.23a4.53,4.53,0,0,1-3.76-1.16c-1.39-1-3.32-4.31-4.81-4.56Z" transform="translate(-0.04)"/></g><g class="cls-8"><path class="cls-6" d="M50.52,399.2c-1.07,4.48-1.71,8.57.48,12.88,3,6,9.68,10,15.81,11.95a46.32,46.32,0,0,0,11.87,1.83c4.49.21,9,.91,13.47,1a150.29,150.29,0,0,1,20.1,1.59c3.7.54,7.29,1.62,11,2.07a79.56,79.56,0,0,1,8.54,1.4c6,1.4,12,1.44,18.06,2.28a69.48,69.48,0,0,0,19.32-.45c5.55-.83,11.43-1.57,14.06-6.93,2.07-4.22.56-6.48-3.13-9.36-3.29-2.55-8.79-3.66-12.64-4.93-5.9-1.95-11.75-3.75-17.8-5.27-8.43-2-16.55-5.05-24.9-7.51-17.13-5.05-33.57-12.09-51.49-13.71-7.42-.68-16.2-.76-23.06,2.64a10.12,10.12,0,0,0-4.72,5.53C44,397.78,45.78,399.92,50.52,399.2Z" transform="translate(-0.04)"/></g><g class="cls-8"><path class="cls-6" d="M49.52,367.81c1,3.13.79,4.11,3.69,5a10.16,10.16,0,0,0,5.89.57c2.45-.71,5.38-2.52,5.7-5.09.35-2.86-2.18-5-4.51-6.23-4.68-2.51-8.45-2.31-10.77,2.9Z" transform="translate(-0.04)"/></g><g class="cls-8"><path class="cls-6" d="M250.3,157.53a9.47,9.47,0,0,1,1-4.93,46.31,46.31,0,0,1,3.27-6.14c.91-1.32,1.49-2.78,2.34-4.15,1.22-1.94,2.46-3.7,3.5-5.75a40.89,40.89,0,0,1,5.27-7.09A25.77,25.77,0,0,0,269,124.7c.75-1.42,1.89-2.53,2.64-4,1-1.74,1.67-3.78,2.63-5.6a54,54,0,0,1,3.19-5.71,14.9,14.9,0,0,1,2.9-3.75,19.58,19.58,0,0,1,2.84-2.38c2.29-1,3.46-.21,4.65,1.91a24.26,24.26,0,0,1,2.45,12A45.25,45.25,0,0,1,288,129.94a48.76,48.76,0,0,1-4.14,8.15,169.19,169.19,0,0,1-9.45,14.16c-1.94,2.74-5.2,5-7.91,7.07a17.22,17.22,0,0,1-5.53,2.93c-1.13.37-2.72,1.15-4,.9a25.46,25.46,0,0,1-3.36-1.32C250.87,160.81,249.55,158.46,250.3,157.53Z" transform="translate(-0.04)"/></g><g class="cls-8"><path class="cls-6" d="M239.84,161.34c-1.65.83-3.38,1.41-4.07,3.22-.2.48-.52,1.53-.18,2,1.32,1.91,5.86-.65,6.89-1.67s2.16-2.92,1.17-4.27a2.7,2.7,0,0,0-.83-.67,2.59,2.59,0,0,0-1-.28,2.5,2.5,0,0,0-1.05.14,2.62,2.62,0,0,0-.91.54Z" transform="translate(-0.04)"/></g><g class="cls-8"><path class="cls-6" d="M324.05,93.31a10.21,10.21,0,0,0-3,2,9.84,9.84,0,0,0-.92,2.4,39,39,0,0,0-2.22,9.34c-.31,3.14-.41,8.69,3.26,10,7.12,2.5,17.52-2.64,18.09-10.61.33-4.53-2.13-8.75-4.78-12.2a26.35,26.35,0,0,0-4.53-5,5.82,5.82,0,0,0-4.26-1.2C323.23,88.55,321.36,91,324.05,93.31Z" transform="translate(-0.04)"/></g><g class="cls-8"><path class="cls-6" d="M322.61,132.32c0-1.55,0-1.94,1-2.95a7.45,7.45,0,0,1,2.32-1.74c1.69-.55,2.78.7,2.86,2.29.07,1.21.12,3.68-1,4.52s-5.53.08-5.27-1.64Z" transform="translate(-0.04)"/></g><g class="cls-8"><path class="cls-6" d="M374.48,100c-.72,3-.62,6-1.18,9a104,104,0,0,0-1.64,15c-.09,2.63,0,5.18-.13,7.77a62.46,62.46,0,0,0-.32,9.57c.42,4.13.89,8.46,3.63,11.76,2,2.34,4.68,1.49,7.25.54a29.76,29.76,0,0,0,5.74-3.67,30.34,30.34,0,0,0,4.06-3.17c5.68-5.27,10.8-11.09,13.08-18.72,1.65-5.55,3.27-11.86,1.91-17.58a22.12,22.12,0,0,0-4.78-9.92,22.38,22.38,0,0,0-6.7-5c-2.1-1.12-4.36-1.21-6.59-1.74a24.81,24.81,0,0,0-5.7-.6,28.27,28.27,0,0,0-5.27.52C374.11,94.52,373.19,99.48,374.48,100Z" transform="translate(-0.04)"/></g><g class="cls-8"><path class="cls-6" d="M380.19,161.82c.66-2.07,2.15-4.21,4.58-3.08a3.68,3.68,0,0,1,1.9,2,3.64,3.64,0,0,1,0,2.75,3.12,3.12,0,0,1-1.56,1.44,3.18,3.18,0,0,1-2.13.14,5.33,5.33,0,0,1-2.3-1.82c-.86-1.14-.16-2,0-3.35Z" transform="translate(-0.04)"/></g><g class="cls-8"><path class="cls-6" d="M386.86,212.71a24.43,24.43,0,0,0-5.54,1.18,4.18,4.18,0,0,1-.7,1.16c-.38.5-1.51,1.16-1.32,1.88,2.4,1,5.83-.61,7.91-1.73a14,14,0,0,0,3.05-2,12.66,12.66,0,0,0,1.62-1.73c.76-1.38,0-2.1-1.41-2.09s-4.86,1.11-5,2.86Z" transform="translate(-0.04)"/></g><g class="cls-8"><path class="cls-6" d="M465.84,204.63a9.45,9.45,0,0,1-1.07,4.66c-.67,1.7-1.62,3.71-1.32,5.61.66,4.5,6.87,3.6,10,3.19,3.72-.49,7.25-1.32,10-4a10.23,10.23,0,0,0,3.65-6.76c.66-4.77,1.77-12.84-5.27-12.75a15.28,15.28,0,0,0-8.09,3,18.63,18.63,0,0,0-4.23,4.13C467.93,203.65,466.13,205.24,465.84,204.63Z" transform="translate(-0.04)"/></g><g class="cls-8"><path class="cls-6" d="M416.36,463.38c2.05-6.67,5.27-12.33,11.37-16.12,1.42-.88,2.64-2,4.34-1.14,1.39.74,1.13,2.36.7,3.74a20.07,20.07,0,0,1-3.55,5.86,56.31,56.31,0,0,1-4.55,4.59,7.8,7.8,0,0,1-3.32,2.15A17.32,17.32,0,0,0,416.36,463.38Z" transform="translate(-0.04)"/></g><g class="cls-8"><path class="cls-6" d="M174.17,471c.12-2.56,1.6-3.76,3.61-5.44a44.53,44.53,0,0,1,15.1-7.65c4.66-1.46,10.22-2.49,15.06-1.16,2.16.61,4.86,1.65,5.79,3.86,1.58,3.83-2.53,9.45-5.58,11.56-3.83,2.64-9.38,3.45-13.77,4.79a31.05,31.05,0,0,1-12.64,1.06,17.69,17.69,0,0,1-4.5-.83,39.1,39.1,0,0,1-4.08-1.24c-1.19-.63-2.73-1.62-2.84-3a4.66,4.66,0,0,1,.58-2.42C171.65,469.33,173.24,469.17,174.17,471Z" transform="translate(-0.04)"/></g></g><path class="cls-9" d="M458.94,187.45c-1.55,1-4.51,2.52-3.95,4.86a30.1,30.1,0,0,0,1.21,3.07,13.84,13.84,0,0,1,.57,2.85,8.58,8.58,0,0,0,1.75,4.36c.71.78,1.46,0,2-.75a5.23,5.23,0,0,0,1.11-2.63,18.23,18.23,0,0,1,.43-3.69c.14-.48.49-.9.6-1.32a8.13,8.13,0,0,0,.08-2,5.1,5.1,0,0,0-3.75-4.72Z" transform="translate(-0.04)"/><path class="cls-9" d="M434.08,321.26c-.27.14-.6.25-.75.54a2.15,2.15,0,0,0-.12.5c-.06.75,1,1.08,1.49,1.22a5.7,5.7,0,0,0,2.32.24,5.62,5.62,0,0,0,2.22-.71,4.31,4.31,0,0,0,1.28-1.2,4.26,4.26,0,0,0,.68-1.61,3.86,3.86,0,0,0-.58-2,3.8,3.8,0,0,0-1.58-1.42,3.8,3.8,0,0,0-3.81-.39,2.43,2.43,0,0,0-1,1.15c-.15.4-.12.82-.24,1.21s-.51.93-.43,1.51A1.71,1.71,0,0,0,434.08,321.26Z" transform="translate(-0.04)"/><path class="cls-9" d="M442.56,323.8a.79.79,0,0,1,.1-.45A.85.85,0,0,1,443,323a.76.76,0,0,1,.42-.23.69.69,0,0,1,.46.11,1,1,0,0,1,.3.33,1.11,1.11,0,0,1,.15.43.93.93,0,0,1,0,.44,1.18,1.18,0,0,1-.19.41,1.21,1.21,0,0,1-.51.31,1.18,1.18,0,0,1-.59,0,1,1,0,0,1-.51-.36,1,1,0,0,1-.17-.61Z" transform="translate(-0.04)"/><path class="cls-9" d="M463.4,292.16a2,2,0,0,0-1.32.67.9.9,0,0,0-.28.36.83.83,0,0,0-.06.44,3.91,3.91,0,0,0,1.4,2.47,1.91,1.91,0,0,0,.82.37,2,2,0,0,0,.92,0,5.43,5.43,0,0,0,1.46-1,13.57,13.57,0,0,0,1.17-1,2.32,2.32,0,0,0,1-2.28,2.49,2.49,0,0,0-1.73-1.85,3.25,3.25,0,0,0-1.72.16C464.4,290.73,463.91,290.73,463.4,292.16Z" transform="translate(-0.04)"/><path class="cls-9" d="M459.51,294.94a2.92,2.92,0,0,1,1.11.72c-.08.21.13.4,0,.62s-.73.08-1,0a1.33,1.33,0,0,1-.73-.67c0-.12-.29-.63,0-.58Z" transform="translate(-0.04)"/><path class="cls-9" d="M413.22,312.07c-.42.48-.9,1-.59,1.73a1.5,1.5,0,0,0,1.68.66.87.87,0,0,0,.85-.49c.14-.36.19-.79.31-1.16.28-.9,1.32-1.32.79-2.39a1.67,1.67,0,0,0-.49-.6,1.63,1.63,0,0,0-.72-.33c-.86,0-1.53.79-2,1.49Z" transform="translate(-0.04)"/><path class="cls-9" d="M287.65,401.53c.26-.56.58-1.61,1.55-2a2.71,2.71,0,0,1,1.82,0c1.46.24,2.91.7,2,2.15a4.62,4.62,0,0,1-2.64,1.51c-.87.15-2.47-.13-2.4-.87Z" transform="translate(-0.04)"/><path class="cls-9" d="M376.09,94.23c-.33,1.32-.78,3,.72,4,1,.63,2.64,0,3.5-.7a9.35,9.35,0,0,0,2.87-5.08c.22-1.72-1.86-3.57-3.44-3.76-3.23-.4-5,4.73-5.14,7.14Z" transform="translate(-0.04)"/><path class="cls-9" d="M368.89,385a7.1,7.1,0,0,0-1.05,5.1c.13,1.07.14,2.5,1.54,2.86,3.29.83,6.71-5.27,7.59-7.29a10.4,10.4,0,0,0,1-5.09c-.09-1-.8-2.84-1.95-3.24a4.72,4.72,0,0,0-4.4,1.52c-2.48,2.48-2.29,5.34-3.64,8Z" transform="translate(-0.04)"/><path class="cls-9" d="M367.17,384.75a12,12,0,0,0-2.52.66c-.41.24-1.06.61-1.2,1a1.41,1.41,0,0,0,.55,1.32,1.51,1.51,0,0,0,.57.24,1.31,1.31,0,0,0,.62-.06,3.06,3.06,0,0,0,.84-.72,7.52,7.52,0,0,0,1-1.32,2.91,2.91,0,0,0,.42-.67c.12-.37-.15-.46-.23-.74Z" transform="translate(-0.04)"/><path class="cls-9" d="M363.4,399.38l1.1.33c-.12.37,0,.78-.47,1.06a3,3,0,0,1-1.48.2c-.49-.11-.76-.39-.7-.81s.68-.74,1.24-.88Z" transform="translate(-0.04)"/><path class="cls-9" d="M307.61,411.69c0,.4,0,.68.45.85a2.44,2.44,0,0,0,1.17,0,2.33,2.33,0,0,0,1-.53c.8-.75,1.51-2.13,1-2.88a1.75,1.75,0,0,0-2.21-.25,7.22,7.22,0,0,0-1.11,1,2.06,2.06,0,0,0-.37.81,2.1,2.1,0,0,0,0,.9Z" transform="translate(-0.04)"/><path class="cls-9" d="M249,316.66c-.4.35-.59.47-.69,1a2.11,2.11,0,0,0-.07.83,2,2,0,0,0,.25.79,5.73,5.73,0,0,0,3.36,1.95,3,3,0,0,0,1.42.07,3.08,3.08,0,0,0,1.29-.58,4.06,4.06,0,0,0,1.18-1.19,3.82,3.82,0,0,0,.57-1.56,2.63,2.63,0,0,0-.09-1.64,2.7,2.7,0,0,0-1.05-1.26,8,8,0,0,0-3.06-1.45,2.64,2.64,0,0,0-1.28.08,2.57,2.57,0,0,0-1.11.66C249,314.88,248.15,315.88,249,316.66Z" transform="translate(-0.04)"/><path class="cls-9" d="M257.61,320.52c0-.32,0-.7.31-.79a2.07,2.07,0,0,1,.85.16,2.19,2.19,0,0,1,.72.47,1.87,1.87,0,0,1,.45,1.21,1.37,1.37,0,0,1-.55.72,1.1,1.1,0,0,1-.65.26,1.06,1.06,0,0,1-.67-.17c-.28-.17-.95-.53-.85-.94Z" transform="translate(-0.04)"/><path class="cls-9" d="M92.15,286.78a17.74,17.74,0,0,1-3.43-11.65c.09-1.78-.11-5,2.43-4.74,3.4.33,5.14,5.6,6.09,8.23,1.41,4,2.78,7.91,2.28,12.14-.69,5.79-8.31-5.73-9.06-6.8Z" transform="translate(-0.04)"/><path class="cls-9" d="M99.48,267.66c-.61,3.36.89,8.13,4.53,9.22,1.32.39,1.78-.42,2.46-1.64a4.8,4.8,0,0,0,.76-1.91,4.74,4.74,0,0,0-.12-2.05,12.5,12.5,0,0,0-1.57-2.5,8.87,8.87,0,0,1-.94-1.41c-.25-.54-.16-1-.58-1.44-1-1.15-4.94-2.08-4.54.59Z" transform="translate(-0.04)"/><path class="cls-9" d="M136.54,506a10.74,10.74,0,0,1,4.15-5.2,22.68,22.68,0,0,1,7.12-3.17,12.1,12.1,0,0,1,7.21.56c2.23,1.18,4.21,2.95,6.31,4.32,1.91,1.25,3.84,1.95,5.51,3.61a15.29,15.29,0,0,1,3.39,5.39c1.16,3.06,2,7.75.7,10.86-1.19,2.84-2.86,2.88-5.69,2.82-4-.06-7.82-3.31-10.33-6.21a28.94,28.94,0,0,0-3.78-4.2c-1.8-1.42-3.69-2.74-5.59-4a56.8,56.8,0,0,1-5.39-3.4C139.43,506.72,137.08,504.92,136.54,506Z" transform="translate(-0.04)"/><path class="cls-9" d="M205.05,326.32c-.25,1.45-.62,2.08.45,2.79a2,2,0,0,0,2.26,0c.8-.47,2.63-2.19,2.36-3.2-.48-2.12-5.8-2.2-5.53.37Z" transform="translate(-0.04)"/><path class="cls-9" d="M304.82,394.39c-.86-3.95,3.18-9.71,7.74-12.94,6.49-4.62,16.37-5.62,23.64-4.64,6.11.8,11.12,4,12.34,8.41.33,1.17.11,2.39.38,3.57.23.89.46,1.41-.85,2.16-3.29,1.86-8.48,3-12.17,3.61a68.84,68.84,0,0,1-12.48,1.32c-3.53-.08-6.91-.59-10.44-.73a28.13,28.13,0,0,1-5-.43C307.13,394.56,305.06,394.85,304.82,394.39Z" transform="translate(-0.04)"/><path class="cls-9" d="M338.29,370c.6.75.63,1.19,1.83,1.32a5,5,0,0,0,2.63-.78c1-.55,2.3-1.87,1.82-2.63-.84-1.44-6.59-.58-6,1.31Z" transform="translate(-0.04)"/><path class="cls-9" d="M428.58,293.58a7.88,7.88,0,0,1,1.17-3.06,2.48,2.48,0,0,1,1.91-.35,3.82,3.82,0,0,1,3,1.74,5.32,5.32,0,0,1,1.32,1.93c.91,4.16-6.4,2.36-7.37-.26Z" transform="translate(-0.04)"/><path class="cls-10" d="M454.92,565.05c58.81-37.65,91.74-91.21,73.55-119.62S447.85,424.51,389,462.16s-91.75,91.22-73.55,119.63S396.1,602.71,454.92,565.05Z" transform="translate(-0.04)"/></g><path class="cls-11" d="M340.86,246.53s-.85,9.59-4.17,15.77l-5.82-2.16s2.73-8.94,3.71-14.24Z" transform="translate(-0.04)"/><path class="cls-11" d="M369.18,192.36l-11.05-1.3-.9,12,10.53.35Z" transform="translate(-0.04)"/><g class="cls-12"><path class="cls-13" d="M631.26,138.73l39.77,20,7.3-17-37.41-20.57S633,133.49,631.26,138.73Z" transform="translate(-0.04)"/><path class="cls-14" d="M624.6,103.91,627,96.46s13.05,5.63,22.59,21.28l-.35.64-18.39-10.56-.78,1.33Z" transform="translate(-0.04)"/><path class="cls-15" d="M608,134.9l-5,6.28s11.88,7.79,30.19,7.14l.35-.64-18.94-9.52.69-1.38Z" transform="translate(-0.04)"/><path class="cls-16" d="M543.83,80.44c-4.73,8.78,8.78,33.78,28.85,43.15s53.51,15.69,53.51,15.69l6.17-11.18,5.94-11.31s-23.71-24.45-42.56-36S548.53,71.72,543.83,80.44Z" transform="translate(-0.04)"/><path class="cls-17" d="M626.2,139.29s5.76-13.41,12.11-22.49C638.31,116.8,632.78,130,626.2,139.29Z" transform="translate(-0.04)"/><path class="cls-18" d="M546.29,97s2.8-14.53,14.08-23.72c0,0-13,.85-16.54,7.19C540.69,86.14,546.29,97,546.29,97Z" transform="translate(-0.04)"/><path class="cls-19" d="M560.48,73.39c-10.6,8.47-14,23.45-14,23.62l-.34-.08c0-.15,3.44-15.27,14.14-23.82Z" transform="translate(-0.04)"/><path class="cls-20" d="M542.93,83.76l3.86-6.4S542.65,79.43,542.93,83.76Z" transform="translate(-0.04)"/><path class="cls-21" d="M543.11,82.68A15.91,15.91,0,0,1,545,78.93s-3.48-.94-4.19.13S543.11,82.68,543.11,82.68Z" transform="translate(-0.04)"/><path class="cls-22" d="M604.5,134.32S608.57,112,620.63,100c7.12,6.25,17.68,16.81,17.68,16.81s-5.83,8-12.11,22.49A143.71,143.71,0,0,1,604.5,134.32Z" transform="translate(-0.04)"/><path class="cls-23" d="M557.5,88.74c-3.65,8.24,2.64,18.92,10.59,23.67s17-.11,21.07-8.26,2.23-17.76-7.19-21.62C573.46,79,561.56,79.59,557.5,88.74Z" transform="translate(-0.04)"/><path class="cls-17" d="M556.2,88.05c-3.65,8.24,2.65,18.91,10.59,23.66s17-.11,21.08-8.26,2.22-17.75-7.2-21.62C572.17,78.32,560.26,78.89,556.2,88.05Z" transform="translate(-0.04)"/><path class="cls-24" d="M555.3,87.56c-3.65,8.24,2.64,18.92,10.59,23.66s17-.1,21.07-8.25,2.23-17.76-7.19-21.63C571.27,77.84,559.36,78.4,555.3,87.56Z" transform="translate(-0.04)"/><path class="cls-25" d="M558.49,88.6c-3.39,7.33,2,14.84,8.23,18.55s13.27-.12,16.5-6.53,1.77-13.92-5.58-17C571,80.93,562,80.93,558.49,88.6Z" transform="translate(-0.04)"/><path class="cls-26" d="M584.49,92.74a13.46,13.46,0,0,1-1.42,7.83c-3.07,6.09-10.47,10.07-16.37,6.54a18.75,18.75,0,0,1-5.24-4.64c-2.83-3.67-4.09-8.44-1.92-13.35,3.18-7.26,11.9-7.29,18.23-4.69A10.48,10.48,0,0,1,584.49,92.74Z" transform="translate(-0.04)"/><path class="cls-19" d="M587.88,103.44l-.08.15,22.61,12.18.08-.16Z" transform="translate(-0.04)"/><path class="cls-19" d="M604.58,134.33l-.18,0c5.48-25,16.05-34.27,16.15-34.37l.12.14C620.57,100.16,610.05,109.35,604.58,134.33Z" transform="translate(-0.04)"/><path class="cls-19" d="M596.13,132l-.18,0c0-.09-.7-9.13,5.08-21.38l.15.09C595.42,122.9,596.12,131.89,596.13,132Z" transform="translate(-0.04)"/><path class="cls-17" d="M628.13,121.83l-9.93-4.94.78-3.06,10.28,5.88Z" transform="translate(-0.04)"/><path class="cls-27" d="M627.4,137.54a138.55,138.55,0,0,1,10.32-19.39l4.06,2.94-10.3,18Z" transform="translate(-0.04)"/><path class="cls-28" d="M629.46,138.3a19.34,19.34,0,0,1,2.47-8.59c2.45-4.34,8.91-9.31,8.91-9.31l-3.12-2.25a118.56,118.56,0,0,0-10.32,19.39Z" transform="translate(-0.04)"/><path class="cls-11" d="M564.56,86.23a18.66,18.66,0,0,1,6-.82l-.05-2s-3.42-.34-5.58,1.32Z" transform="translate(-0.04)"/><path class="cls-11" d="M569.87,106l2.88-.08,0,1.66-2.32-.08Z" transform="translate(-0.04)"/><path class="cls-29" d="M548.87,101.64s.35-15.85,15.39-28.65l-3.89.26S551,80.27,546.29,97Z" transform="translate(-0.04)"/><path class="cls-30" d="M602.26,112a.59.59,0,0,1,.24.2.72.72,0,0,1,.15.27,1.08,1.08,0,0,1,0,.31.86.86,0,0,1-.09.3.81.81,0,0,1-.47.38.78.78,0,0,1-.6-.06.74.74,0,0,1-.38-.47.78.78,0,0,1,.06-.6.59.59,0,0,1,.2-.24.72.72,0,0,1,.27-.15.8.8,0,0,1,.31,0A.75.75,0,0,1,602.26,112Z" transform="translate(-0.04)"/><path class="cls-31" d="M602.19,112.17a.65.65,0,0,1,.24.86.63.63,0,0,1-.37.31.66.66,0,0,1-.48,0,.63.63,0,0,1-.3-.38.67.67,0,0,1,.06-.48.6.6,0,0,1,.37-.31A.62.62,0,0,1,602.19,112.17Z" transform="translate(-0.04)"/><path class="cls-32" d="M598.83,110.18a.81.81,0,0,1,.38.47.86.86,0,0,1-.07.61.8.8,0,0,1-1.08.32.79.79,0,0,1-.37-.47.78.78,0,0,1,.07-.6.79.79,0,0,1,.46-.39.82.82,0,0,1,.31,0A.75.75,0,0,1,598.83,110.18Z" transform="translate(-0.04)"/><path class="cls-33" d="M598.75,110.32a.6.6,0,0,1,.3.38.62.62,0,0,1,0,.48.63.63,0,0,1-.37.31.62.62,0,0,1-.48,0,.49.49,0,0,1-.19-.16.59.59,0,0,1-.12-.22.65.65,0,0,1,0-.24.61.61,0,0,1,.07-.24.58.58,0,0,1,.16-.19.45.45,0,0,1,.21-.12.54.54,0,0,1,.25,0A.62.62,0,0,1,598.75,110.32Z" transform="translate(-0.04)"/><path class="cls-34" d="M569.52,110.25a.79.79,0,0,0-.32-1.08.8.8,0,0,0-1.07.33.79.79,0,1,0,1.39.75Z" transform="translate(-0.04)"/><path class="cls-35" d="M569.12,109.31a.63.63,0,0,1,.3.38.62.62,0,0,1,0,.48.63.63,0,0,1-.37.31.62.62,0,0,1-.48,0,.63.63,0,0,1-.3-.38.72.72,0,0,1,0-.48.58.58,0,0,1,.16-.19.45.45,0,0,1,.21-.12.54.54,0,0,1,.25,0A.62.62,0,0,1,569.12,109.31Z" transform="translate(-0.04)"/><path class="cls-17" d="M560,102.64a.8.8,0,0,1,.32,1.08.91.91,0,0,1-.2.24.87.87,0,0,1-.27.14.67.67,0,0,1-.31,0,.75.75,0,0,1-.3-.09.76.76,0,0,1-.38-.48.8.8,0,0,1,0-.31.63.63,0,0,1,.1-.29.74.74,0,0,1,.46-.39A.81.81,0,0,1,560,102.64Z" transform="translate(-0.04)"/><path class="cls-36" d="M559.94,102.79a.65.65,0,0,1,.24.86.63.63,0,0,1-.37.31.66.66,0,0,1-.48,0,.71.71,0,0,1-.3-.38.66.66,0,0,1,.06-.48.6.6,0,0,1,.37-.31A.62.62,0,0,1,559.94,102.79Z" transform="translate(-0.04)"/><path class="cls-17" d="M580.52,106.77a.91.91,0,0,1,.24.2.74.74,0,0,1,.14.28.8.8,0,0,1,0,.31.75.75,0,0,1-.09.29.79.79,0,0,1-.47.39.79.79,0,0,1-.92-1.14.88.88,0,0,1,.19-.24.92.92,0,0,1,.28-.14.65.65,0,0,1,.31,0A.75.75,0,0,1,580.52,106.77Z" transform="translate(-0.04)"/><path class="cls-37" d="M580.44,106.92a.66.66,0,0,1,.3.38.72.72,0,0,1,0,.48.65.65,0,0,1-.38.31.62.62,0,0,1-.72-.9.65.65,0,0,1,.37-.3A.62.62,0,0,1,580.44,106.92Z" transform="translate(-0.04)"/><path class="cls-17" d="M587.23,96.32a.76.76,0,0,1,.38.48.77.77,0,0,1,0,.3.75.75,0,0,1-.09.3.79.79,0,0,1-.47.39.8.8,0,0,1-.93-1.14.91.91,0,0,1,.2-.24.72.72,0,0,1,.27-.15.82.82,0,0,1,.31,0A.75.75,0,0,1,587.23,96.32Z" transform="translate(-0.04)"/><path class="cls-38" d="M587.15,96.47a.65.65,0,0,1,.29.38.62.62,0,0,1-.05.48.63.63,0,0,1-.37.31.62.62,0,0,1-.48,0,.58.58,0,0,1-.19-.16.57.57,0,0,1-.11-.22.49.49,0,0,1,0-.24.68.68,0,0,1,.08-.24.7.7,0,0,1,.15-.19.48.48,0,0,1,.22-.12.48.48,0,0,1,.24,0A.73.73,0,0,1,587.15,96.47Z" transform="translate(-0.04)"/><path class="cls-34" d="M585,86.52a.79.79,0,1,0-1.08.33A.8.8,0,0,0,585,86.52Z" transform="translate(-0.04)"/><path class="cls-39" d="M584.63,85.59a.6.6,0,0,1,.3.38.62.62,0,0,1,0,.48.62.62,0,0,1-1.15-.11.62.62,0,0,1,0-.48.63.63,0,0,1,.37-.31A.61.61,0,0,1,584.63,85.59Z" transform="translate(-0.04)"/><path class="cls-17" d="M571.77,79.94a.68.68,0,0,1,.24.2.72.72,0,0,1,.15.27.81.81,0,0,1,0,.31.78.78,0,0,1-.56.68.83.83,0,0,1-.6-.05.81.81,0,0,1-.32-1.08.88.88,0,0,1,.19-.24.76.76,0,0,1,.28-.15.8.8,0,0,1,.31,0A.75.75,0,0,1,571.77,79.94Z" transform="translate(-0.04)"/><path class="cls-40" d="M571.7,80.08a.65.65,0,0,1,.24.86.63.63,0,0,1-.37.31.66.66,0,0,1-.48,0,.63.63,0,0,1-.3-.38.67.67,0,0,1,.06-.48.6.6,0,0,1,.37-.31A.66.66,0,0,1,571.7,80.08Z" transform="translate(-0.04)"/><path class="cls-17" d="M562.43,82.06a.76.76,0,0,1,.38.48.77.77,0,0,1,0,.3.75.75,0,0,1-.09.3.79.79,0,0,1-.47.39.79.79,0,0,1-1-.53.77.77,0,0,1,.07-.61.79.79,0,0,1,.46-.39.82.82,0,0,1,.31,0A.75.75,0,0,1,562.43,82.06Z" transform="translate(-0.04)"/><path class="cls-41" d="M562.35,82.21a.71.71,0,0,1,.3.38.66.66,0,0,1-.06.48.63.63,0,0,1-.37.31.62.62,0,0,1-.48,0,.65.65,0,0,1,.13-1.17A.66.66,0,0,1,562.35,82.21Z" transform="translate(-0.04)"/><path class="cls-17" d="M556.41,90.87a.81.81,0,0,1,.38.47.78.78,0,0,1-.07.6.65.65,0,0,1-.19.24.76.76,0,0,1-.28.15.77.77,0,0,1-.3,0,.78.78,0,0,1-.54-.29.7.7,0,0,1-.14-.27.82.82,0,0,1,0-.31.86.86,0,0,1,.09-.3.8.8,0,0,1,1.08-.32Z" transform="translate(-0.04)"/><path class="cls-42" d="M556.33,91a.9.9,0,0,1,.19.15.65.65,0,0,1,.11.22.71.71,0,0,1,0,.25.63.63,0,0,1-.08.23.62.62,0,0,1-.15.2.94.94,0,0,1-.22.12.69.69,0,0,1-.25,0,.62.62,0,0,1-.23-.07.64.64,0,0,1,.12-1.17A.64.64,0,0,1,556.33,91Z" transform="translate(-0.04)"/><path class="cls-43" d="M633.47,147.69l.28-.51-19-9.55-.26.53Z" transform="translate(-0.04)"/><path class="cls-43" d="M630.87,107.81l-.3.5,18.5,10.41.19-.35Z" transform="translate(-0.04)"/><path class="cls-44" d="M614.72,112.27l1-1.86,28.33,17.65-.7,1.29Z" transform="translate(-0.04)"/><path class="cls-45" d="M614.72,112.27l5.79,4.78,22.84,12.3Z" transform="translate(-0.04)"/><path class="cls-28" d="M616.59,111l21.72,5.85-2.66,4.35,4.63,2.56-.81,1.5Z" transform="translate(-0.04)"/><path class="cls-11" d="M553.71,106.07a5,5,0,0,1-2.66-2.86l.61-1a38.78,38.78,0,0,1,2.34,3.36Z" transform="translate(-0.04)"/><path class="cls-11" d="M615.67,97.33,608,90.7l.29-.54L616,96.69Z" transform="translate(-0.04)"/><path class="cls-46" d="M577.85,74.07s1.09-3.63,3.6.8Z" transform="translate(-0.04)"/><path class="cls-47" d="M556.88,112s-.75,3.51,2.53,2.49Z" transform="translate(-0.04)"/><g class="cls-5"><path class="cls-48" d="M627.59,135.94s-30.4-5.46-51.47-12.53l0,1s31.75,12,50.32,14.37Z" transform="translate(-0.04)"/></g><path class="cls-48" d="M606.17,89.33l-4.85-3.87.28-.51,4.85,3.87Z" transform="translate(-0.04)"/><path class="cls-48" d="M596.54,128.15a46.88,46.88,0,0,1,2.91-12.55S597.76,121.55,596.54,128.15Z" transform="translate(-0.04)"/><path class="cls-48" d="M590.08,104.39,610,114.92S603,110.71,590.08,104.39Z" transform="translate(-0.04)"/><path class="cls-48" d="M605.87,129.82s3.31-15.44,12.68-26.9C618.57,102.93,611.15,111.16,605.87,129.82Z" transform="translate(-0.04)"/><path class="cls-48" d="M555.43,98.82s1.7-1.43-1.08-4.3A17.73,17.73,0,0,0,555.43,98.82Z" transform="translate(-0.04)"/><path class="cls-48" d="M587.72,101.32s2.13-4.49.23-12.18A15.88,15.88,0,0,1,587.72,101.32Z" transform="translate(-0.04)"/><path class="cls-48" d="M583,100.93a5.65,5.65,0,0,0,1.76-7.34S585.5,96.59,583,100.93Z" transform="translate(-0.04)"/><g class="cls-49"><g class="cls-49"><path class="cls-48" d="M591.12,106.24c0,.31,0,.86.39,1a5,5,0,0,0,.54.06,2.24,2.24,0,0,1,.46.14,1.39,1.39,0,0,0,.78.08c.16,0,.11-.21,0-.34a.94.94,0,0,0-.29-.37,2.15,2.15,0,0,1-.5-.35c-.06-.05-.09-.14-.16-.19a1.51,1.51,0,0,0-.28-.15.83.83,0,0,0-.51-.08A.84.84,0,0,0,591.12,106.24Z" transform="translate(-0.04)"/></g><g class="cls-49"><path class="cls-48" d="M593.47,108.69a.26.26,0,0,1-.13-.06.2.2,0,0,1-.08-.12c.18-.33.91-.09.87.29s-.57.23-.73,0Z" transform="translate(-0.04)"/></g><g class="cls-49"><path class="cls-48" d="M594.34,117.19c0-.22,0-.43.12-.6a.93.93,0,0,1,.48-.27,1.56,1.56,0,0,1,.68,0,.58.58,0,0,1,.31.11,1.53,1.53,0,0,1,.29,1.34,2.88,2.88,0,0,1-.18.7,3.94,3.94,0,0,0-.18.48,1,1,0,0,1-.16.39,1.27,1.27,0,0,1-.31.2,1,1,0,0,1-.47.1.94.94,0,0,1-.47-.12c-.5-.3-.58-1.14-.56-1.67S594,116.79,594.34,117.19Z" transform="translate(-0.04)"/></g><g class="cls-49"><path class="cls-48" d="M594.52,115.19c.12.13.14.2.3.13a.46.46,0,0,0,.12-.12A.49.49,0,0,0,595,115c0-.21-.11-.59-.36-.56a1,1,0,0,0-.47.19.64.64,0,0,0,0,.41.66.66,0,0,0,.26.33Z" transform="translate(-0.04)"/></g><g class="cls-49"><path class="cls-48" d="M603.17,111.12a.71.71,0,0,0,.22.15l.59.32c.37.2.72.46,1.1.67a6.45,6.45,0,0,0,.86.35l.46.14s-.06-.08-.08-.11-.18-.2-.25-.3c-.16-.25-.32-.5-.5-.73a.64.64,0,0,1-.1-.13c0-.06,0-.14-.07-.2a1.11,1.11,0,0,0-.18-.34,2,2,0,0,0-.72-.5c-.09,0-.19-.06-.27-.11l-.3-.13a1.67,1.67,0,0,0-.67-.07c-.26,0-.67,0-.87.18s0,.23.11.31l.36.25C603,111,603.2,111.16,603.17,111.12Z" transform="translate(-0.04)"/></g><g class="cls-49"><path class="cls-48" d="M601.55,109.9c-.07-.11-.22-.29-.09-.42s.31,0,.41.06-.2.37-.37.25Z" transform="translate(-0.04)"/></g><g class="cls-49"><path class="cls-48" d="M604.56,108.2a.57.57,0,0,0,.27.24.33.33,0,0,0,.24,0,.3.3,0,0,0,.16-.17c.13-.24.17-.44,0-.61a.67.67,0,0,0-.28-.1.77.77,0,0,0-.3,0,.34.34,0,0,0-.18.15.37.37,0,0,0,.06.4Z" transform="translate(-0.04)"/></g><g class="cls-49"><path class="cls-48" d="M614.94,106.81a6.13,6.13,0,0,1,.21-1.35,10.5,10.5,0,0,1,.49-1.08,12.48,12.48,0,0,0,.44-1.59,2.94,2.94,0,0,1,.62-1.28,1.34,1.34,0,0,1,.46-.36,1.42,1.42,0,0,1,.56-.15,2.09,2.09,0,0,1,.7.15c.1,0,.2.08.3.12l.19.06c.09,0,.07.09,0,.18a.84.84,0,0,1-.34.38,2.59,2.59,0,0,0-.65.63c-.18.23-.37.44-.54.68l-.5.7-.44.6a5.83,5.83,0,0,0-.39.62c-.13.21-.2.36-.29.53s-.14.21-.2.33-.1.17-.16.25a2,2,0,0,0-.14.25A2.13,2.13,0,0,1,614.94,106.81Z" transform="translate(-0.04)"/></g><g class="cls-49"><path class="cls-48" d="M614.63,103.67c0,.08,0,.18.08.23l.11.06c.18,0,.33-.22.4-.35a1.67,1.67,0,0,0,.19-1.24,1,1,0,0,0-.19-.39.92.92,0,0,0-.35-.26,1,1,0,0,0-1,.42,1.14,1.14,0,0,0-.35,1,.58.58,0,0,0,.2.31l.27.11c.12.07.19.18.34.18A.43.43,0,0,0,614.63,103.67Z" transform="translate(-0.04)"/></g><g class="cls-49"><path class="cls-48" d="M615.82,101.52a.14.14,0,0,1-.1,0,.17.17,0,0,1-.06-.1.24.24,0,0,1,0-.12.23.23,0,0,1,.06-.12.18.18,0,0,1,.09-.06l.11,0a.27.27,0,0,1,.12,0l.09.07a.42.42,0,0,1,0,.15.41.41,0,0,1,0,.16.34.34,0,0,1-.12.12.32.32,0,0,1-.17,0Z" transform="translate(-0.04)"/></g><g class="cls-49"><path class="cls-48" d="M609.57,94.55a.55.55,0,0,0,.06.4.22.22,0,0,0,.07.09.21.21,0,0,0,.11,0,1,1,0,0,0,.69-.27.62.62,0,0,0,.15-.2.7.7,0,0,0,.05-.25,1.26,1.26,0,0,0-.13-.43,3,3,0,0,0-.17-.37.48.48,0,0,0-.18-.26.46.46,0,0,0-.3-.11.66.66,0,0,0-.33.12.75.75,0,0,0-.24.26,1,1,0,0,0-.07.47A.5.5,0,0,0,609.57,94.55Z" transform="translate(-0.04)"/></g><g class="cls-49"><path class="cls-48" d="M610,95.72a1,1,0,0,1,.26-.27s.1,0,.15,0,0,.2-.07.26a.39.39,0,0,1-.21.17s-.17,0-.15,0Z" transform="translate(-0.04)"/></g><g class="cls-49"><path class="cls-48" d="M611,108.86c.09.14.18.28.38.24a.46.46,0,0,0,.21-.18.48.48,0,0,0,.07-.26c0-.09,0-.19-.06-.25s-.17-.09-.25-.14-.24-.39-.53-.31a.42.42,0,0,0-.18.11.43.43,0,0,0-.13.17.7.7,0,0,0,.22.61Z" transform="translate(-0.04)"/></g><g class="cls-49"><path class="cls-48" d="M609.55,129.26a1.47,1.47,0,0,0,0,.78l.09.05a.91.91,0,0,0,.21.18.77.77,0,0,0,.26.07c.59,0,.79-.5,1-.94s.63-1-.13-1.17a2.24,2.24,0,0,0-1.23,0c-.18.09-.17.19-.19.36a1.85,1.85,0,0,0-.05.7Z" transform="translate(-0.04)"/></g><g class="cls-49"><path class="cls-48" d="M613.17,124.28c-.09-.14-.28-.38-.2-.57s.18-.17.32-.23c.29-.15.63-.26.81.14a.73.73,0,0,1,0,.33.66.66,0,0,1-.12.3c-.11.14-.44.3-.59.16Z" transform="translate(-0.04)"/></g><g class="cls-49"><path class="cls-48" d="M584.77,80.09c.26.36.27.39.68.48a2,2,0,0,0,1,.09c.43-.13.55-.53.81-.83a.72.72,0,0,0,.21-.32.62.62,0,0,0,0-.38,2.69,2.69,0,0,0-.37-.95,3.73,3.73,0,0,0-1.19-1.08,3.65,3.65,0,0,0-1.54-.48,2.43,2.43,0,0,0-2,.5,1.71,1.71,0,0,0-.45.78,1.68,1.68,0,0,0,0,.89,1.84,1.84,0,0,0,.5.73,1.89,1.89,0,0,0,.79.42l.42.09a3.1,3.1,0,0,1,.47.26A.57.57,0,0,0,584.77,80.09Z" transform="translate(-0.04)"/></g><g class="cls-49"><path class="cls-48" d="M585.61,81.8c.47-.19.38-.16.75,0,.16.06.23,0,.35.12a.62.62,0,0,1,.14.32.58.58,0,0,1-.07.34c-.08.14-.48.21-.62.21a.5.5,0,0,1-.24-.06.52.52,0,0,1-.17-.19Z" transform="translate(-0.04)"/></g><g class="cls-49"><path class="cls-48" d="M567.12,116c.25.22.55.51.93.3a.84.84,0,0,0,.26-.84,2.23,2.23,0,0,0-.75-1.21,1,1,0,0,0-1.21.31c-.47.66.43,1.62.92,1.95Z" transform="translate(-0.04)"/></g><g class="cls-49"><path class="cls-48" d="M570.07,118.16c-.1,0-.43,0-.52,0s0-.1,0-.15a.66.66,0,0,1-.11-.24.7.7,0,0,1,.31-.69.82.82,0,0,1,.5-.17.47.47,0,0,1,.33.08.5.5,0,0,1,.21.28.67.67,0,0,1,0,.46.65.65,0,0,1-.34.31Z" transform="translate(-0.04)"/></g><g class="cls-49"><path class="cls-48" d="M624.07,107.11a2.79,2.79,0,0,0,1.51,1c.38.12.86.31,1.21,0,.82-.67-.66-2.33-1.16-2.81a4.22,4.22,0,0,0-1.52-.94,2,2,0,0,0-1.4,0,1,1,0,0,0-.23,1.26c.4,1,1.39,1.28,2.06,2Z" transform="translate(-0.04)"/></g><g class="cls-49"><path class="cls-48" d="M623.7,107.49a2.72,2.72,0,0,0-.19.69.69.69,0,0,0,.13.44.44.44,0,0,0,.25.08.57.57,0,0,0,.26,0,.39.39,0,0,0,.16-.1.34.34,0,0,0,.1-.16.67.67,0,0,0-.1-.3,2.44,2.44,0,0,0-.28-.43,1.39,1.39,0,0,0-.15-.19c-.11-.08-.19,0-.29,0Z" transform="translate(-0.04)"/></g><g class="cls-49"><path class="cls-48" d="M627.94,110.4l.28-.21c.11.08.26.11.27.26a.63.63,0,0,1-.17.38.34.34,0,0,1-.19.09.34.34,0,0,1-.2,0c-.16-.08-.14-.26-.09-.41Z" transform="translate(-0.04)"/></g><g class="cls-49"><path class="cls-48" d="M626.74,127.14a.35.35,0,0,0,.39.15.54.54,0,0,0,.3-.21.5.5,0,0,0,.08-.36,1.29,1.29,0,0,0-.73-1c-.23-.07-.63.07-.62.36a2.61,2.61,0,0,0,.05.48,1.12,1.12,0,0,0,.49.54Z" transform="translate(-0.04)"/></g><g class="cls-49"><path class="cls-48" d="M561.65,78.22a.52.52,0,0,0,.16.32.67.67,0,0,0,.44.18,1.78,1.78,0,0,0,1-.61,1.07,1.07,0,0,0,.22-.37,1,1,0,0,0,0-.42,1.07,1.07,0,0,0-.14-.47,1.31,1.31,0,0,0-.33-.37.69.69,0,0,0-.44-.2.81.81,0,0,0-.48.09,2.48,2.48,0,0,0-.8.6.76.76,0,0,0-.17.35.81.81,0,0,0,0,.38C561.2,78,561.34,78.32,561.65,78.22Z" transform="translate(-0.04)"/></g><g class="cls-49"><path class="cls-48" d="M563.88,76.49c-.08,0-.18-.1-.16-.2a.74.74,0,0,1,.16-.2.52.52,0,0,1,.61-.07.37.37,0,0,1,.1.25.25.25,0,0,1,0,.19.32.32,0,0,1-.13.15c-.08,0-.27.17-.36.09Z" transform="translate(-0.04)"/></g><g class="cls-49"><path class="cls-48" d="M549.51,77.7a.58.58,0,0,0,.4.12,1.78,1.78,0,0,0,.74-.23,1.68,1.68,0,0,0,.71-.71.81.81,0,0,0,0-.38.66.66,0,0,0-.21-.31,1.31,1.31,0,0,0-.88-.22,1.72,1.72,0,0,0-1.31.92C548.71,77.47,549.51,77.93,549.51,77.7Z" transform="translate(-0.04)"/></g><g class="cls-49"><path class="cls-48" d="M552.72,76.35a.46.46,0,0,1-.26,0c0-.1-.07-.17-.06-.28a.45.45,0,0,1,.18-.25.44.44,0,0,1,.19-.07.69.69,0,0,1,.2,0c.14.08.14.15.14.29s0,.14-.1.2a.88.88,0,0,1-.22.1Z" transform="translate(-0.04)"/></g></g><path class="cls-50" d="M606,128.35a.83.83,0,0,1,.49,1,.82.82,0,0,1-1.12.16c-.45-.24-.67-.7-.49-1A.81.81,0,0,1,606,128.35Z" transform="translate(-0.04)"/><path class="cls-48" d="M605.88,128.48a.55.55,0,1,1-.5.92c-.35-.19-.52-.54-.38-.8A.64.64,0,0,1,605.88,128.48Z" transform="translate(-0.04)"/><path class="cls-51" d="M616.92,104a.9.9,0,0,1,.45.45.84.84,0,0,1,0,.64.83.83,0,0,1-1.15.21.84.84,0,0,1-.45-.44.88.88,0,0,1,0-.64.8.8,0,0,1,.53-.34A.84.84,0,0,1,616.92,104Z" transform="translate(-0.04)"/><path class="cls-48" d="M616.85,104.09a.68.68,0,0,1,.35.36.62.62,0,0,1,0,.5.68.68,0,0,1-.41.27.88.88,0,0,1-.85-.46.72.72,0,0,1,0-.5.66.66,0,0,1,.91-.17Z" transform="translate(-0.04)"/><path class="cls-52" d="M611.25,116.12a.92.92,0,1,0-1.61-.87.93.93,0,0,0,.37,1.25A.92.92,0,0,0,611.25,116.12Z" transform="translate(-0.04)"/><path class="cls-48" d="M610.79,115.05a.69.69,0,0,1,.35.43.75.75,0,0,1-.06.55.72.72,0,0,1-.43.35.7.7,0,0,1-.55,0,.7.7,0,0,1-.34-.43.66.66,0,0,1,.06-.55.7.7,0,0,1,1-.3Z" transform="translate(-0.04)"/><path class="cls-53" d="M611.27,110.11a5.14,5.14,0,0,1,2,.65,5.28,5.28,0,0,1,1.57,1.37,5.4,5.4,0,0,1-4.92,8.62,5.34,5.34,0,0,1-2-.66,5.24,5.24,0,0,1-2.49-3.23,5.16,5.16,0,0,1-.13-2.07,5.38,5.38,0,0,1,6-4.68Z" transform="translate(-0.04)"/><path class="cls-54" d="M579.86,69.66a4.18,4.18,0,0,1,1.57.53,4.27,4.27,0,0,1,2,2.57,4.43,4.43,0,0,1,.11,1.66,4.37,4.37,0,0,1-1.62,2.85,4.3,4.3,0,0,1-3.15.89,4.18,4.18,0,0,1-1.57-.53,4,4,0,0,1-1.25-1.09,4,4,0,0,1-.74-1.49,4.31,4.31,0,0,1,1.51-4.5A4.3,4.3,0,0,1,579.86,69.66Z" transform="translate(-0.04)"/><path class="cls-55" d="M543.69,76.19a4.18,4.18,0,0,1,1.57.53,4.2,4.2,0,0,1,2,2.57,4.43,4.43,0,0,1,.11,1.66,4.37,4.37,0,0,1-1.62,2.85,4.3,4.3,0,0,1-3.15.89,4.18,4.18,0,0,1-1.57-.53,4.18,4.18,0,0,1-2-2.57,4.23,4.23,0,0,1-.11-1.66,4.37,4.37,0,0,1,1.62-2.85A4.3,4.3,0,0,1,543.69,76.19Z" transform="translate(-0.04)"/><path class="cls-56" d="M557.94,111.27a2.2,2.2,0,0,1,1.47.83,2.41,2.41,0,0,1,.38.77,2.26,2.26,0,0,1,.05.86,2.22,2.22,0,0,1-2.46,1.93,2.15,2.15,0,0,1-.82-.27,2,2,0,0,1-.64-.56,2.06,2.06,0,0,1-.38-.77,2.08,2.08,0,0,1-.06-.86,2.23,2.23,0,0,1,2.46-1.93Z" transform="translate(-0.04)"/><path class="cls-57" d="M616.64,102.93a2.2,2.2,0,0,1,.76.25,2.22,2.22,0,0,1,.61.53,2,2,0,0,1,.36.72,2,2,0,0,1,0,.8,2.08,2.08,0,0,1-2.3,1.81,2,2,0,0,1-.76-.25,2.22,2.22,0,0,1-.61-.53,2.1,2.1,0,0,1-.35-.72,2,2,0,0,1,0-.8,2,2,0,0,1,.77-1.37A2.08,2.08,0,0,1,616.64,102.93Z" transform="translate(-0.04)"/><path class="cls-58" d="M605.69,127.27a1.85,1.85,0,0,1,.76.25,1.93,1.93,0,0,1,.61.53,2.05,2.05,0,0,1,.35.71,2,2,0,0,1,.05.8,2,2,0,0,1-.77,1.38,2.08,2.08,0,0,1-1.52.43,2.11,2.11,0,0,1-.77-.25,2.18,2.18,0,0,1-.6-.53,2,2,0,0,1-.36-.72,2.15,2.15,0,0,1-.05-.8,2.07,2.07,0,0,1,.78-1.37A2,2,0,0,1,605.69,127.27Z" transform="translate(-0.04)"/></g><image width="1080" height="1960" transform="translate(181.65) scale(0.33)" xlink:href="../../../../../OneDrive/Desktop/Untitled-1.png"/></g></g></svg>