<svg xmlns="http://www.w3.org/2000/svg" xmlns:xlink="http://www.w3.org/1999/xlink" viewBox="0 0 195.57 199.66"><defs><style>.cls-1{fill:url(#linear-gradient);}.cls-2{fill:#f7df1e;}</style><linearGradient id="linear-gradient" y1="99.83" x2="195.57" y2="99.83" gradientUnits="userSpaceOnUse"><stop offset="0" stop-color="#12c2e9"/><stop offset="0.52" stop-color="#c471ed"/><stop offset="0.97" stop-color="#f64f59"/></linearGradient></defs><g id="Layer_2" data-name="Layer 2"><g id="Layer_1-2" data-name="Layer 1"><ellipse class="cls-1" cx="97.79" cy="99.83" rx="97.79" ry="99.83"/><ellipse class="cls-2" cx="98.74" cy="99.94" rx="72.82" ry="70.5"/><path d="M114.62,72.14a16.44,16.44,0,0,0-10.56,4.54A13.7,13.7,0,0,0,100,87c0,6.33,2.6,10.75,8.4,14.26a61.49,61.49,0,0,0,7,3.35c4.73,2,6.49,3,7.61,4.19a5.24,5.24,0,0,1,.9,5.67,5.67,5.67,0,0,1-1,1.34,8.36,8.36,0,0,1-6.07,2.07c-4.42,0-7.72-1.82-10.38-5.74a5.56,5.56,0,0,0-.74-1c-.1,0-8.73,5-8.91,5.15s0,.34.42,1.06q5.17,8.72,16.12,10.19a34.92,34.92,0,0,0,7.3,0c4.59-.65,8-2.17,10.69-4.75a14.18,14.18,0,0,0,4.23-10.71,15.9,15.9,0,0,0-1.52-7.24,13,13,0,0,0-2.7-3.78c-2.39-2.43-5.49-4.26-11.67-6.92-4.68-2-6.24-2.87-7.27-4A4.85,4.85,0,0,1,111,86.37a4.23,4.23,0,0,1,1.17-2.86,5.17,5.17,0,0,1,4.25-1.65,6.37,6.37,0,0,1,5,2,11.52,11.52,0,0,1,1.47,1.8c.36.55.62.86.71.82.29-.12,8.54-5.45,8.54-5.53s-.42-.7-.93-1.48a19.44,19.44,0,0,0-4.4-4.57,17.3,17.3,0,0,0-8.68-2.77A17.05,17.05,0,0,0,114.62,72.14Z"/><path d="M79.3,92.75l0,20.06-.25.94a5.34,5.34,0,0,1-1.39,2.66c-1,1-2.18,1.35-4.22,1.36-2.92,0-4.67-1.23-6.7-4.7a6.09,6.09,0,0,0-.65-1s-2.1,1.25-4.56,2.74L57,117.56l.35.68a16.91,16.91,0,0,0,9.77,8.52,22.37,22.37,0,0,0,14.42-.34c5-2,8-6.26,8.79-12.53.07-.64.12-7.73.12-21.07V72.71H79.35Z"/></g></g></svg>